<?xml version="1.0" encoding="UTF-8" standalone="no"?>
<!-- Created with Inkscape (http://www.inkscape.org/) -->

<svg
   xmlns:dc="http://purl.org/dc/elements/1.1/"
   xmlns:cc="http://creativecommons.org/ns#"
   xmlns:rdf="http://www.w3.org/1999/02/22-rdf-syntax-ns#"
   xmlns:svg="http://www.w3.org/2000/svg"
   xmlns="http://www.w3.org/2000/svg"
   xmlns:sodipodi="http://sodipodi.sourceforge.net/DTD/sodipodi-0.dtd"
   xmlns:inkscape="http://www.inkscape.org/namespaces/inkscape"
   id="svg4206"
   version="1.1"
   inkscape:version="0.91 r13725"
   width="112"
   height="72"
   viewBox="0 0 112 72"
   sodipodi:docname="runner.svg">
  <metadata
     id="metadata4212">
    <rdf:RDF>
      <cc:Work
         rdf:about="">
        <dc:format>image/svg+xml</dc:format>
        <dc:type
           rdf:resource="http://purl.org/dc/dcmitype/StillImage" />
        <dc:title></dc:title>
      </cc:Work>
    </rdf:RDF>
  </metadata>
  <defs
     id="defs4210" />
  <sodipodi:namedview
     pagecolor="#ffffff"
     bordercolor="#666666"
     borderopacity="1"
     objecttolerance="10"
     gridtolerance="10"
     guidetolerance="10"
     inkscape:pageopacity="0"
     inkscape:pageshadow="2"
     inkscape:window-width="1600"
     inkscape:window-height="878"
     id="namedview4208"
     showgrid="false"
     fit-margin-top="0"
     fit-margin-left="0"
     fit-margin-right="0"
     fit-margin-bottom="0"
     inkscape:zoom="3.6714286"
     inkscape:cx="52.459143"
     inkscape:cy="37.906615"
     inkscape:window-x="0"
     inkscape:window-y="22"
     inkscape:window-maximized="0"
     inkscape:current-layer="svg4206" />
  <g
     id="g20425">
    <path
       style="fill:#000000;fill-opacity:0"
       d="M 0,0.5 0,0 0.5,0 1,0 1.5,0 2,0 2.5,0 3,0 3.5,0 4,0 4.5,0 5,0 5.5,0 6,0 6.5,0 7,0 7.5,0 8,0 8.5,0 9,0 9.5,0 10,0 10.5,0 11,0 11.5,0 12,0 12.5,0 13,0 13.5,0 14,0 14.5,0 15,0 15.5,0 16,0 16.5,0 17,0 17.5,0 18,0 18.5,0 19,0 19.5,0 20,0 20.5,0 21,0 21.5,0 22,0 22.5,0 23,0 23.5,0 24,0 24.5,0 25,0 25.5,0 26,0 26.5,0 27,0 27.5,0 28,0 28.5,0 29,0 29.5,0 30,0 30.5,0 31,0 31.5,0 32,0 32.5,0 33,0 33.5,0 34,0 34.5,0 35,0 35.5,0 36,0 36.5,0 37,0 37.5,0 38,0 38.5,0 39,0 39.5,0 40,0 40.5,0 41,0 41.5,0 42,0 42.5,0 43,0 43.5,0 44,0 44.5,0 45,0 45.5,0 46,0 46.5,0 47,0 47.5,0 48,0 48.5,0 49,0 49.5,0 50,0 50.5,0 51,0 51.5,0 52,0 52.5,0 53,0 53.5,0 54,0 54.5,0 55,0 55.5,0 56,0 56.5,0 57,0 57.5,0 58,0 58.5,0 59,0 59.5,0 60,0 60.5,0 61,0 61.5,0 62,0 62.5,0 63,0 63.5,0 64,0 64.5,0 65,0 65.5,0 66,0 66.5,0 67,0 67.5,0 68,0 68.5,0 69,0 69.5,0 70,0 70.5,0 71,0 71.5,0 72,0 72.5,0 73,0 73.5,0 74,0 74.5,0 75,0 75.5,0 76,0 76.5,0 77,0 77.5,0 78,0 78.5,0 79,0 79.5,0 80,0 80,0.5 q 0,0.5 0,1 0,0.5 0,1 0,0.5 0,1 0,0.5 0,1 0,0.5 0,1 0,0.5 0,1 0,0.5 0.125,0.875 0.125,0.375 0.5,0.5 Q 81,8 81.5,8 q 0.5,0 1,0 0.5,0 1,0 0.5,0 1,0 0.5,0 1,0 0.5,0 1,0 0.5,0 1,0 0.5,0 1,0 0.5,0 1,0 0.5,0 1,0 0.5,0 1,0 0.5,0 1,0 0.5,0 1,0 0.5,0 1,0 0.5,0 0.875,-0.125 0.375,-0.125 0.5,-0.5 Q 96,7 96,6.5 96,6 96,5.5 96,5 96,4.5 96,4 96,3.5 96,3 96,2.5 96,2 96,1.5 96,1 96,0.5 l 0,-0.5 0.5,0 0.5,0 0.5,0 0.5,0 0.5,0 0.5,0 0.5,0 0.5,0 0.5,0 0.5,0 0.5,0 0.5,0 0.5,0 0.5,0 0.5,0 0.5,0 0.5,0 0.5,0 0.5,0 0.5,0 0.5,0 0.5,0 0.5,0 0.5,0 0.5,0 0.5,0 0.5,0 0.5,0 0.5,0 0.5,0 0.5,0 0.5,0 0,0.5 0,0.5 0,0.5 0,0.5 0,0.5 0,0.5 0,0.5 0,0.5 0,0.5 0,0.5 0,0.5 0,0.5 0,0.5 0,0.5 0,0.5 0,0.5 -0.5,0 q -0.5,0 -1,0 -0.5,0 -1,0 -0.5,0 -1,0 -0.5,0 -1,0 -0.5,0 -1,0 -0.5,0 -1,0 -0.5,0 -1,0 -0.5,0 -1,0 -0.5,0 -1,0 -0.5,0 -1,0 -0.5,0 -1,0 -0.5,0 -1,0 Q 99,8 98.5,8 98,8 97.5,8 97,8 96.625,8.125 96.25,8.25 96.125,8.625 96,9 96,9.5 q 0,0.5 0,1 0,0.5 0,1 0,0.5 0,1 0,0.5 0,1 0,0.5 0,1 0,0.5 0,1 l 0,0.5 -0.5,0 q -0.5,0 -1,0 -0.5,0 -1,0 -0.5,0 -1,0 -0.5,0 -1,0 -0.5,0 -1,0 -0.5,0 -1,0 -0.5,0 -0.875,0.125 -0.375,0.125 -0.5,0.5 Q 88,17 88,17.5 q 0,0.5 0,1 0,0.5 0,1 0,0.5 0,1 0,0.5 0,1 0,0.5 0,1 0,0.5 0,1 l 0,0.5 -0.5,0 q -0.5,0 -1,0 -0.5,0 -1,0 -0.5,0 -1,0 -0.5,0 -1,0 -0.5,0 -1,0 -0.5,0 -1,0 -0.5,0 -0.875,0.125 -0.375,0.125 -0.5,0.5 Q 80,25 80,25.5 q 0,0.5 0,1 0,0.5 0,1 0,0.5 0,1 0,0.5 0,1 0,0.5 0,1 0,0.5 0,1 l 0,0.5 -0.5,0 q -0.5,0 -1,0 -0.5,0 -1,0 -0.5,0 -1,0 -0.5,0 -1,0 -0.5,0 -1,0 -0.5,0 -1,0 -0.5,0 -1,0 -0.5,0 -1,0 -0.5,0 -1,0 -0.5,0 -1,0 -0.5,0 -1,0 -0.5,0 -1,0 -0.5,0 -1,0 -0.5,0 -1,0 -0.5,0 -1,0 -0.5,0 -1,0 -0.5,0 -1,0 -0.5,0 -1,0 -0.5,0 -1,0 -0.5,0 -1,0 -0.5,0 -1,0 -0.5,0 -1,0 -0.5,0 -1,0 -0.5,0 -1,0 -0.5,0 -1,0 -0.5,0 -1,0 -0.5,0 -1,0 -0.5,0 -1,0 -0.5,0 -1,0 -0.5,0 -1,0 -0.5,0 -0.875,0.125 -0.375,0.125 -0.5,0.5 Q 48,33 48,33.5 q 0,0.5 0,1 0,0.5 0,1 0,0.5 0,1 0,0.5 0,1 0,0.5 0,1 0,0.5 0,1 l 0,0.5 -0.5,0 q -0.5,0 -1,0 -0.5,0 -1,0 -0.5,0 -1,0 -0.5,0 -1,0 -0.5,0 -1,0 -0.5,0 -1,0 -0.5,0 -0.875,0.125 -0.375,0.125 -0.5,0.5 Q 40,41 40,41.5 q 0,0.5 0,1 0,0.5 0,1 0,0.5 0,1 0,0.5 0,1 0,0.5 0,1 0,0.5 -0.125,0.875 -0.125,0.375 -0.5,0.5 Q 39,48 38.5,48 q -0.5,0 -1,0 -0.5,0 -1,0 -0.5,0 -1,0 -0.5,0 -1,0 -0.5,0 -1,0 -0.5,0 -0.875,0.125 -0.375,0.125 -0.5,0.5 Q 32,49 32,49.5 q 0,0.5 0,1 0,0.5 0,1 0,0.5 0,1 0,0.5 0,1 0,0.5 0,1 0,0.5 0,1 0,0.5 0,1 0,0.5 0,1 0,0.5 0,1 0,0.5 0,1 0,0.5 0,1 0,0.5 0,1 0,0.5 0,1 0,0.5 0,1 0,0.5 0,1 0,0.5 0,1 0,0.5 0,1 0,0.5 0,1 0,0.5 0,1 0,0.5 0,1 0,0.5 0,1 0,0.5 0,1 L 32,72 31.5,72 31,72 30.5,72 30,72 29.5,72 29,72 28.5,72 28,72 27.5,72 27,72 26.5,72 26,72 25.5,72 25,72 24.5,72 24,72 23.5,72 23,72 22.5,72 22,72 21.5,72 21,72 20.5,72 20,72 19.5,72 19,72 18.5,72 18,72 17.5,72 17,72 16.5,72 16,72 15.5,72 15,72 14.5,72 14,72 13.5,72 13,72 12.5,72 12,72 11.5,72 11,72 10.5,72 10,72 9.5,72 9,72 8.5,72 8,72 7.5,72 7,72 6.5,72 6,72 5.5,72 5,72 4.5,72 4,72 3.5,72 3,72 2.5,72 2,72 1.5,72 1,72 0.5,72 0,72 0,71.5 0,71 0,70.5 0,70 0,69.5 0,69 0,68.5 0,68 0,67.5 0,67 0,66.5 0,66 0,65.5 0,65 0,64.5 0,64 0,63.5 0,63 0,62.5 0,62 0,61.5 0,61 0,60.5 0,60 0,59.5 0,59 0,58.5 0,58 0,57.5 0,57 0,56.5 0,56 0,55.5 0,55 0,54.5 0,54 0,53.5 0,53 0,52.5 0,52 0,51.5 0,51 0,50.5 0,50 0,49.5 0,49 0,48.5 0,48 0,47.5 0,47 0,46.5 0,46 0,45.5 0,45 0,44.5 0,44 0,43.5 0,43 0,42.5 0,42 0,41.5 0,41 0,40.5 0,40 0,39.5 0,39 0,38.5 0,38 0,37.5 0,37 0,36.5 0,36 0,35.5 0,35 0,34.5 0,34 0,33.5 0,33 0,32.5 0,32 0,31.5 0,31 0,30.5 0,30 0,29.5 0,29 0,28.5 0,28 0,27.5 0,27 0,26.5 0,26 0,25.5 0,25 0,24.5 0,24 0,23.5 0,23 0,22.5 0,22 0,21.5 0,21 0,20.5 0,20 0,19.5 0,19 0,18.5 0,18 0,17.5 0,17 0,16.5 0,16 0.5,16 q 0.5,0 1,0 0.5,0 1,0 0.5,0 1,0 0.5,0 1,0 0.5,0 1,0 0.5,0 1,0 0.5,0 1,0 0.5,0 1,0 0.5,0 1,0 0.5,0 1,0 0.5,0 1,0 0.5,0 1,0 0.5,0 1,0 0.5,0 1,0 0.5,0 0.875,0.125 0.375,0.125 0.5,0.5 Q 16,17 16,17.5 q 0,0.5 0,1 0,0.5 0,1 0,0.5 0,1 0,0.5 0,1 0,0.5 0,1 0,0.5 0.125,0.875 0.125,0.375 0.5,0.5 Q 17,24 17.5,24 q 0.5,0 1,0 0.5,0 1,0 0.5,0 1,0 0.5,0 1,0 0.5,0 1,0 0.5,0 0.875,0.125 0.375,0.125 0.5,0.5 Q 24,25 24,25.5 q 0,0.5 0,1 0,0.5 0,1 0,0.5 0,1 0,0.5 0,1 0,0.5 0,1 0,0.5 0.125,0.875 0.125,0.375 0.5,0.5 Q 25,32 25.5,32 q 0.5,0 1,0 0.5,0 1,0 0.5,0 1,0 0.5,0 1,0 0.5,0 1,0 0.5,0 1,0 0.5,0 1,0 0.5,0 1,0 0.5,0 1,0 0.5,0 1,0 0.5,0 1,0 0.5,0 1,0 0.5,0 1,0 0.5,0 1,0 0.5,0 1,0 0.5,0 1,0 0.5,0 1,0 0.5,0 1,0 0.5,0 1,0 0.5,0 1,0 0.5,0 1,0 0.5,0 0.875,-0.125 0.375,-0.125 0.5,-0.5 Q 48,31 48,30.5 q 0,-0.5 0,-1 0,-0.5 0,-1 0,-0.5 0,-1 0,-0.5 0,-1 0,-0.5 0,-1 0,-0.5 -0.125,-0.875 -0.125,-0.375 -0.5,-0.5 Q 47,24 46.5,24 q -0.5,0 -1,0 -0.5,0 -1,0 -0.5,0 -1,0 -0.5,0 -1,0 -0.5,0 -1,0 -0.5,0 -0.875,-0.125 -0.375,-0.125 -0.5,-0.5 Q 40,23 40,22.5 q 0,-0.5 0,-1 0,-0.5 0,-1 0,-0.5 0,-1 0,-0.5 0,-1 0,-0.5 0,-1 0,-0.5 -0.125,-0.875 -0.125,-0.375 -0.5,-0.5 Q 39,16 38.5,16 q -0.5,0 -1,0 -0.5,0 -1,0 -0.5,0 -1,0 -0.5,0 -1,0 -0.5,0 -1,0 -0.5,0 -0.875,-0.125 -0.375,-0.125 -0.5,-0.5 Q 32,15 32,14.5 q 0,-0.5 0,-1 0,-0.5 0,-1 0,-0.5 0,-1 0,-0.5 0,-1 0,-0.5 0,-1 Q 32,9 31.875,8.625 31.75,8.25 31.375,8.125 31,8 30.5,8 30,8 29.5,8 29,8 28.5,8 28,8 27.5,8 27,8 26.5,8 26,8 25.5,8 25,8 24.5,8 24,8 23.5,8 23,8 22.5,8 22,8 21.5,8 21,8 20.5,8 20,8 19.5,8 19,8 18.5,8 18,8 17.5,8 17,8 16.5,8 16,8 15.5,8 15,8 14.5,8 14,8 13.5,8 13,8 12.5,8 12,8 11.5,8 11,8 10.5,8 10,8 9.5,8 9,8 8.5,8 8,8 7.5,8 7,8 6.5,8 6,8 5.5,8 5,8 4.5,8 4,8 3.5,8 3,8 2.5,8 2,8 1.5,8 1,8 0.5,8 L 0,8 0,7.5 0,7 0,6.5 0,6 0,5.5 0,5 0,4.5 0,4 0,3.5 0,3 0,2.5 0,2 0,1.5 0,1 0,0.5"
       id="path20427"
       inkscape:connector-curvature="0" />
    <path
       style="fill:#3d4988;fill-opacity:1"
       d="M 80,0.5 80,0 80.5,0 81,0 81.5,0 82,0 82.5,0 83,0 83.5,0 84,0 84.5,0 85,0 85.5,0 86,0 86.5,0 87,0 87.5,0 88,0 88.5,0 89,0 89.5,0 90,0 90.5,0 91,0 91.5,0 92,0 92.5,0 93,0 93.5,0 94,0 94.5,0 95,0 95.5,0 96,0 96,0.5 q 0,0.5 0,1 0,0.5 0,1 0,0.5 0,1 0,0.5 0,1 0,0.5 0,1 0,0.5 0,1 0,0.5 -0.125,0.875 -0.125,0.375 -0.5,0.5 Q 95,8 94.5,8 94,8 93.5,8 93,8 92.5,8 92,8 91.5,8 91,8 90.5,8 90,8 89.5,8 89,8 88.5,8 88,8 87.5,8 87,8 86.5,8 86,8 85.5,8 85,8 84.5,8 84,8 83.5,8 83,8 82.5,8 82,8 81.5,8 81,8 80.625,7.875 80.25,7.75 80.125,7.375 80,7 80,6.5 80,6 80,5.5 80,5 80,4.5 80,4 80,3.5 80,3 80,2.5 80,2 80,1.5 80,1 80,0.5"
       id="path20429"
       inkscape:connector-curvature="0" />
    <path
       style="fill:#4889cb;fill-opacity:1"
       d="M 0,8.5 0,8 0.5,8 q 0.5,0 1,0 0.5,0 1,0 0.5,0 1,0 0.5,0 1,0 0.5,0 1,0 0.5,0 1,0 0.5,0 1,0 0.5,0 1,0 0.5,0 1,0 0.5,0 1,0 0.5,0 1,0 0.5,0 1,0 0.5,0 1,0 0.5,0 1,0 0.5,0 1,0 0.5,0 1,0 0.5,0 1,0 0.5,0 1,0 0.5,0 1,0 0.5,0 1,0 0.5,0 1,0 0.5,0 1,0 0.5,0 1,0 0.5,0 1,0 0.5,0 1,0 0.5,0 1,0 0.5,0 1,0 0.5,0 1,0 0.5,0 1,0 0.5,0 1,0 0.5,0 0.875,0.125 0.375,0.125 0.5,0.5 Q 32,9 32,9.5 q 0,0.5 0,1 0,0.5 0,1 0,0.5 0,1 0,0.5 0,1 0,0.5 0,1 0,0.5 0.125,0.875 0.125,0.375 0.5,0.5 Q 33,16 33.5,16 q 0.5,0 1,0 0.5,0 1,0 0.5,0 1,0 0.5,0 1,0 0.5,0 1,0 0.5,0 0.875,0.125 0.375,0.125 0.5,0.5 Q 40,17 40,17.5 q 0,0.5 0,1 0,0.5 0,1 0,0.5 0,1 0,0.5 0,1 0,0.5 0,1 0,0.5 0.125,0.875 0.125,0.375 0.5,0.5 Q 41,24 41.5,24 q 0.5,0 1,0 0.5,0 1,0 0.5,0 1,0 0.5,0 1,0 0.5,0 1,0 0.5,0 0.875,0.125 0.375,0.125 0.5,0.5 Q 48,25 48,25.5 q 0,0.5 0,1 0,0.5 0,1 0,0.5 0,1 0,0.5 0,1 0,0.5 0,1 0,0.5 -0.125,0.875 -0.125,0.375 -0.5,0.5 Q 47,32 46.5,32 q -0.5,0 -1,0 -0.5,0 -1,0 -0.5,0 -1,0 -0.5,0 -1,0 -0.5,0 -1,0 -0.5,0 -1,0 -0.5,0 -1,0 -0.5,0 -1,0 -0.5,0 -1,0 -0.5,0 -1,0 -0.5,0 -1,0 -0.5,0 -1,0 -0.5,0 -1,0 -0.5,0 -1,0 -0.5,0 -1,0 -0.5,0 -1,0 -0.5,0 -1,0 -0.5,0 -1,0 -0.5,0 -1,0 -0.5,0 -1,0 -0.5,0 -1,0 -0.5,0 -0.875,-0.125 -0.375,-0.125 -0.5,-0.5 Q 24,31 24,30.5 q 0,-0.5 0,-1 0,-0.5 0,-1 0,-0.5 0,-1 0,-0.5 0,-1 0,-0.5 0,-1 0,-0.5 -0.125,-0.875 -0.125,-0.375 -0.5,-0.5 Q 23,24 22.5,24 q -0.5,0 -1,0 -0.5,0 -1,0 -0.5,0 -1,0 -0.5,0 -1,0 -0.5,0 -1,0 -0.5,0 -0.875,-0.125 -0.375,-0.125 -0.5,-0.5 Q 16,23 16,22.5 q 0,-0.5 0,-1 0,-0.5 0,-1 0,-0.5 0,-1 0,-0.5 0,-1 0,-0.5 0,-1 0,-0.5 -0.125,-0.875 -0.125,-0.375 -0.5,-0.5 Q 15,16 14.5,16 q -0.5,0 -1,0 -0.5,0 -1,0 -0.5,0 -1,0 -0.5,0 -1,0 -0.5,0 -1,0 -0.5,0 -1,0 -0.5,0 -1,0 -0.5,0 -1,0 -0.5,0 -1,0 -0.5,0 -1,0 -0.5,0 -1,0 -0.5,0 -1,0 -0.5,0 -1,0 -0.5,0 -1,0 L 0,16 0,15.5 0,15 0,14.5 0,14 0,13.5 0,13 0,12.5 0,12 0,11.5 0,11 0,10.5 0,10 0,9.5 0,9 0,8.5"
       id="path20431"
       inkscape:connector-curvature="0" />
    <path
       style="fill:#4889cb;fill-opacity:1"
       d="M 96.125,8.625 Q 96.25,8.25 96.625,8.125 97,8 97.5,8 q 0.5,0 1,0 0.5,0 1,0 0.5,0 1,0 0.5,0 1,0 0.5,0 1,0 0.5,0 1,0 l 0.5,0 0,0.5 q 0,0.5 0,1 0,0.5 0,1 0,0.5 0,1 0,0.5 0,1 0,0.5 0,1 0,0.5 0,1 0,0.5 0,1 l 0,0.5 -0.5,0 q -0.5,0 -1,0 -0.5,0 -1,0 -0.5,0 -1,0 -0.5,0 -1,0 -0.5,0 -1,0 -0.5,0 -1,0 -0.5,0 -1,0 l -0.5,0 0,-0.5 q 0,-0.5 0,-1 0,-0.5 0,-1 0,-0.5 0,-1 0,-0.5 0,-1 0,-0.5 0,-1 0,-0.5 0,-1 0,-0.5 0.125,-0.875 m 7.5,7.375 0.375,0 0.125,0 0.125,0 -0.25,0 q -0.25,0 -0.5,0 l -0.25,0 0.375,0 m 0.5,-8 -0.125,0 -0.375,0 -0.375,0 0.25,0 q 0.25,0 0.5,0 l 0.25,0 -0.125,0"
       id="path20433"
       inkscape:connector-curvature="0" />
    <path
       style="fill:#e79d2d;fill-opacity:1"
       d="m 104,8.5 0,-0.5 0.5,0 q 0.5,0 1,0 0.5,0 1,0 0.5,0 1,0 0.5,0 1,0 0.5,0 1,0 0.5,0 1,0 0.5,0 1,0 l 0.5,0 0,0.5 0,0.5 0,0.5 0,0.5 0,0.5 0,0.5 0,0.5 0,0.5 0,0.5 0,0.5 0,0.5 0,0.5 0,0.5 0,0.5 0,0.5 0,0.5 -0.5,0 q -0.5,0 -1,0 -0.5,0 -1,0 -0.5,0 -1,0 -0.5,0 -1,0 -0.5,0 -1,0 -0.5,0 -1,0 -0.5,0 -1,0 l -0.5,0 0,-0.5 q 0,-0.5 0,-1 0,-0.5 0,-1 0,-0.5 0,-1 0,-0.5 0,-1 0,-0.5 0,-1 0,-0.5 0,-1 0,-0.5 0,-1 m -0.125,7.5 0.125,0 0.375,0 0.375,0 -0.25,0 q -0.25,0 -0.5,0 l -0.25,0 0.125,0 m 0.5,-8 L 104,8 103.875,8 103.75,8 104,8 q 0.25,0 0.5,0 l 0.25,0 -0.375,0"
       id="path20435"
       inkscape:connector-curvature="0" />
    <path
       style="fill:#4889cb;fill-opacity:1"
       d="m 88.125,16.625 q 0.125,-0.375 0.5,-0.5 Q 89,16 89.5,16 q 0.5,0 1,0 0.5,0 1,0 0.5,0 1,0 0.5,0 1,0 0.5,0 1,0 0.5,0 1,0 l 0.5,0 0,0.5 q 0,0.5 0,1 0,0.5 0,1 0,0.5 0,1 0,0.5 0,1 0,0.5 0,1 0,0.5 0,1 0,0.5 -0.125,0.875 -0.125,0.375 -0.5,0.5 Q 95,24 94.5,24 q -0.5,0 -1,0 -0.5,0 -1,0 -0.5,0 -1,0 -0.5,0 -1,0 -0.5,0 -1,0 -0.5,0 -1,0 l -0.5,0 0,-0.5 q 0,-0.5 0,-1 0,-0.5 0,-1 0,-0.5 0,-1 0,-0.5 0,-1 0,-0.5 0,-1 0,-0.5 0,-1 0,-0.5 0.125,-0.875"
       id="path20437"
       inkscape:connector-curvature="0" />
    <path
       style="fill:#000000;fill-opacity:0"
       d="m 96,16.5 0,-0.5 0.5,0 q 0.5,0 1,0 0.5,0 1,0 0.5,0 1,0 0.5,0 1,0 0.5,0 1,0 0.5,0 1,0 0.5,0 1,0 0.5,0 1,0 0.5,0 1,0 0.5,0 1,0 0.5,0 1,0 0.5,0 1,0 0.5,0 1,0 0.5,0 1,0 0.5,0 1,0 l 0.5,0 0,0.5 0,0.5 0,0.5 0,0.5 0,0.5 0,0.5 0,0.5 0,0.5 0,0.5 0,0.5 0,0.5 0,0.5 0,0.5 0,0.5 0,0.5 0,0.5 0,0.5 0,0.5 0,0.5 0,0.5 0,0.5 0,0.5 0,0.5 0,0.5 0,0.5 0,0.5 0,0.5 0,0.5 0,0.5 0,0.5 0,0.5 0,0.5 0,0.5 0,0.5 0,0.5 0,0.5 0,0.5 0,0.5 0,0.5 0,0.5 0,0.5 0,0.5 0,0.5 0,0.5 0,0.5 0,0.5 0,0.5 0,0.5 0,0.5 0,0.5 0,0.5 0,0.5 0,0.5 0,0.5 0,0.5 0,0.5 0,0.5 0,0.5 0,0.5 0,0.5 0,0.5 0,0.5 0,0.5 0,0.5 0,0.5 0,0.5 0,0.5 0,0.5 0,0.5 0,0.5 0,0.5 0,0.5 0,0.5 0,0.5 0,0.5 0,0.5 0,0.5 0,0.5 0,0.5 0,0.5 0,0.5 0,0.5 0,0.5 0,0.5 0,0.5 0,0.5 0,0.5 0,0.5 0,0.5 0,0.5 0,0.5 0,0.5 0,0.5 0,0.5 0,0.5 0,0.5 0,0.5 0,0.5 0,0.5 0,0.5 0,0.5 0,0.5 0,0.5 0,0.5 0,0.5 0,0.5 0,0.5 0,0.5 0,0.5 0,0.5 0,0.5 0,0.5 -0.5,0 -0.5,0 -0.5,0 -0.5,0 -0.5,0 -0.5,0 -0.5,0 -0.5,0 -0.5,0 -0.5,0 -0.5,0 -0.5,0 -0.5,0 -0.5,0 -0.5,0 -0.5,0 -0.5,0 -0.5,0 -0.5,0 -0.5,0 -0.5,0 -0.5,0 -0.5,0 -0.5,0 -0.5,0 -0.5,0 -0.5,0 -0.5,0 -0.5,0 -0.5,0 -0.5,0 -0.5,0 -0.5,0 -0.5,0 -0.5,0 -0.5,0 -0.5,0 -0.5,0 -0.5,0 -0.5,0 -0.5,0 -0.5,0 -0.5,0 -0.5,0 -0.5,0 -0.5,0 -0.5,0 -0.5,0 -0.5,0 -0.5,0 -0.5,0 -0.5,0 -0.5,0 -0.5,0 -0.5,0 -0.5,0 -0.5,0 -0.5,0 -0.5,0 -0.5,0 -0.5,0 -0.5,0 -0.5,0 -0.5,0 -0.5,0 -0.5,0 -0.5,0 -0.5,0 -0.5,0 -0.5,0 -0.5,0 -0.5,0 -0.5,0 -0.5,0 -0.5,0 -0.5,0 -0.5,0 -0.5,0 -0.5,0 -0.5,0 -0.5,0 -0.5,0 -0.5,0 -0.5,0 -0.5,0 -0.5,0 -0.5,0 -0.5,0 -0.5,0 -0.5,0 -0.5,0 -0.5,0 -0.5,0 -0.5,0 -0.5,0 -0.5,0 -0.5,0 -0.5,0 -0.5,0 -0.5,0 -0.5,0 -0.5,0 -0.5,0 -0.5,0 -0.5,0 -0.5,0 -0.5,0 -0.5,0 -0.5,0 -0.5,0 -0.5,0 -0.5,0 0,-0.5 q 0,-0.5 0,-1 0,-0.5 0,-1 0,-0.5 0,-1 0,-0.5 0,-1 0,-0.5 0,-1 0,-0.5 0,-1 0,-0.5 0.125,-0.875 0.125,-0.375 0.5,-0.5 Q 57,64 57.5,64 q 0.5,0 1,0 0.5,0 1,0 0.5,0 1,0 0.5,0 1,0 0.5,0 1,0 0.5,0 0.875,-0.125 0.375,-0.125 0.5,-0.5 Q 64,63 64,62.5 q 0,-0.5 0,-1 0,-0.5 0,-1 0,-0.5 0,-1 0,-0.5 0,-1 0,-0.5 0,-1 0,-0.5 0,-1 0,-0.5 0,-1 0,-0.5 0,-1 0,-0.5 0,-1 0,-0.5 0,-1 0,-0.5 0,-1 0,-0.5 0,-1 0,-0.5 0,-1 0,-0.5 0,-1 l 0,-0.5 0.5,0 q 0.5,0 1,0 0.5,0 1,0 0.5,0 1,0 0.5,0 1,0 0.5,0 1,0 0.5,0 1,0 0.5,0 0.875,-0.125 0.375,-0.125 0.5,-0.5 Q 72,47 72,46.5 q 0,-0.5 0,-1 0,-0.5 0,-1 0,-0.5 0,-1 0,-0.5 0,-1 0,-0.5 0,-1 0,-0.5 0,-1 l 0,-0.5 0.5,0 q 0.5,0 1,0 0.5,0 1,0 0.5,0 1,0 0.5,0 1,0 0.5,0 1,0 0.5,0 1,0 0.5,0 0.875,-0.125 0.375,-0.125 0.5,-0.5 Q 80,39 80,38.5 q 0,-0.5 0,-1 0,-0.5 0,-1 0,-0.5 0,-1 0,-0.5 0,-1 0,-0.5 0,-1 0,-0.5 0,-1 l 0,-0.5 0.5,0 q 0.5,0 1,0 0.5,0 1,0 0.5,0 1,0 0.5,0 1,0 0.5,0 1,0 0.5,0 1,0 0.5,0 0.875,-0.125 0.375,-0.125 0.5,-0.5 Q 88,31 88,30.5 q 0,-0.5 0,-1 0,-0.5 0,-1 0,-0.5 0,-1 0,-0.5 0,-1 0,-0.5 0,-1 0,-0.5 0,-1 l 0,-0.5 0.5,0 q 0.5,0 1,0 0.5,0 1,0 0.5,0 1,0 0.5,0 1,0 0.5,0 1,0 0.5,0 1,0 0.5,0 0.875,-0.125 0.375,-0.125 0.5,-0.5 Q 96,23 96,22.5 q 0,-0.5 0,-1 0,-0.5 0,-1 0,-0.5 0,-1 0,-0.5 0,-1 0,-0.5 0,-1 0,-0.5 0,-1 M 72,39.875 72,40 l 0,0.375 0,0.375 0,-0.25 q 0,-0.25 0,-0.5 l 0,-0.25 0,0.125 m -8,8 0,0.125 0,0.375 0,0.375 0,-0.25 q 0,-0.25 0,-0.5 l 0,-0.25 0,0.125"
       id="path20439"
       inkscape:connector-curvature="0" />
    <path
       style="fill:#4889cb;fill-opacity:1"
       d="m 80.125,24.625 q 0.125,-0.375 0.5,-0.5 Q 81,24 81.5,24 q 0.5,0 1,0 0.5,0 1,0 0.5,0 1,0 0.5,0 1,0 0.5,0 1,0 0.5,0 1,0 l 0.5,0 0,0.5 q 0,0.5 0,1 0,0.5 0,1 0,0.5 0,1 0,0.5 0,1 0,0.5 0,1 0,0.5 0,1 0,0.5 -0.125,0.875 -0.125,0.375 -0.5,0.5 Q 87,32 86.5,32 q -0.5,0 -1,0 -0.5,0 -1,0 -0.5,0 -1,0 -0.5,0 -1,0 -0.5,0 -1,0 -0.5,0 -1,0 l -0.5,0 0,-0.5 q 0,-0.5 0,-1 0,-0.5 0,-1 0,-0.5 0,-1 0,-0.5 0,-1 0,-0.5 0,-1 0,-0.5 0,-1 0,-0.5 0.125,-0.875"
       id="path20441"
       inkscape:connector-curvature="0" />
    <path
       style="fill:#3d4988;fill-opacity:1"
       d="m 48.125,32.625 q 0.125,-0.375 0.5,-0.5 Q 49,32 49.5,32 q 0.5,0 1,0 0.5,0 1,0 0.5,0 1,0 0.5,0 1,0 0.5,0 1,0 0.5,0 1,0 0.5,0 1,0 0.5,0 1,0 0.5,0 1,0 0.5,0 1,0 0.5,0 1,0 0.5,0 1,0 0.5,0 1,0 0.5,0 1,0 0.5,0 1,0 0.5,0 1,0 0.5,0 1,0 0.5,0 1,0 0.5,0 1,0 0.5,0 1,0 0.5,0 1,0 0.5,0 1,0 l 0.5,0 0,0.5 q 0,0.5 0,1 0,0.5 0,1 0,0.5 0,1 0,0.5 0,1 0,0.5 0,1 0,0.5 0,1 0,0.5 0,1 0,0.5 0,1 0,0.5 0,1 0,0.5 0,1 0,0.5 0,1 0,0.5 0,1 0,0.5 0,1 0,0.5 0,1 0,0.5 -0.125,0.875 -0.125,0.375 -0.5,0.5 Q 71,48 70.5,48 q -0.5,0 -1,0 -0.5,0 -1,0 -0.5,0 -1,0 -0.5,0 -1,0 -0.5,0 -1,0 -0.5,0 -1,0 l -0.5,0 0,-0.5 q 0,-0.5 0,-1 0,-0.5 0,-1 0,-0.5 0,-1 0,-0.5 0,-1 0,-0.5 0,-1 0,-0.5 0,-1 0,-0.5 -0.125,-0.875 -0.125,-0.375 -0.5,-0.5 Q 63,40 62.5,40 q -0.5,0 -1,0 -0.5,0 -1,0 -0.5,0 -1,0 -0.5,0 -1,0 -0.5,0 -1,0 -0.5,0 -1,0 -0.5,0 -1,0 -0.5,0 -1,0 -0.5,0 -1,0 -0.5,0 -1,0 -0.5,0 -1,0 -0.5,0 -1,0 -0.5,0 -1,0 -0.5,0 -1,0 l -0.5,0 0,-0.5 q 0,-0.5 0,-1 0,-0.5 0,-1 0,-0.5 0,-1 0,-0.5 0,-1 0,-0.5 0,-1 0,-0.5 0,-1 0,-0.5 0.125,-0.875 M 64,47.625 64,48 64,48.125 64,48.25 64,48 q 0,-0.25 0,-0.5 l 0,-0.25 0,0.375 M 72.125,32 72,32 l -0.375,0 -0.375,0 0.25,0 q 0.25,0 0.5,0 l 0.25,0 -0.125,0"
       id="path20443"
       inkscape:connector-curvature="0" />
    <path
       style="fill:#4889cb;fill-opacity:1"
       d="m 72,32.5 0,-0.5 0.5,0 q 0.5,0 1,0 0.5,0 1,0 0.5,0 1,0 0.5,0 1,0 0.5,0 1,0 0.5,0 1,0 0.5,0 1,0 l 0.5,0 0,0.5 q 0,0.5 0,1 0,0.5 0,1 0,0.5 0,1 0,0.5 0,1 0,0.5 0,1 0,0.5 0,1 0,0.5 -0.125,0.875 -0.125,0.375 -0.5,0.5 Q 79,40 78.5,40 q -0.5,0 -1,0 -0.5,0 -1,0 -0.5,0 -1,0 -0.5,0 -1,0 -0.5,0 -1,0 -0.5,0 -1,0 l -0.5,0 0,-0.5 q 0,-0.5 0,-1 0,-0.5 0,-1 0,-0.5 0,-1 0,-0.5 0,-1 0,-0.5 0,-1 0,-0.5 0,-1 0,-0.5 0,-1 m 0,7.125 0,0.375 0,0.125 0,0.125 0,-0.25 q 0,-0.25 0,-0.5 l 0,-0.25 0,0.375 M 72.375,32 72,32 71.875,32 71.75,32 72,32 q 0.25,0 0.5,0 l 0.25,0 -0.375,0"
       id="path20445"
       inkscape:connector-curvature="0" />
    <path
       style="fill:#c4601f;fill-opacity:1"
       d="m 40.125,40.625 q 0.125,-0.375 0.5,-0.5 Q 41,40 41.5,40 q 0.5,0 1,0 0.5,0 1,0 0.5,0 1,0 0.5,0 1,0 0.5,0 1,0 0.5,0 1,0 l 0.5,0 0,0.5 q 0,0.5 0,1 0,0.5 0,1 0,0.5 0,1 0,0.5 0,1 0,0.5 0,1 0,0.5 0,1 0,0.5 0.0625,1.0625 L 48.125,48.125 48.1875,48.0625 48.25,48 48.125,48.125 Q 48,48.25 48,48.5 l 0,0.25 0,-0.375 0,-0.375 0,0.5 q 0,0.5 0,1 0,0.5 0,1 0,0.5 0,1 0,0.5 0,1 0,0.5 0,1 0,0.5 0,1 0,0.5 0,1 l 0,0.5 -0.5,0 q -0.5,0 -1,0 -0.5,0 -1,0 -0.5,0 -1,0 -0.5,0 -1,0 -0.5,0 -1,0 -0.5,0 -1,0 -0.5,0 -1,0 l -0.5,0 0.375,0 0.375,0 -0.25,0 q -0.25,0 -0.375,0.125 L 40,56.25 40.0625,56.1875 40.125,56.125 39.5625,56.0625 Q 39,56 38.5,56 q -0.5,0 -1,0 -0.5,0 -1,0 -0.5,0 -1,0 -0.5,0 -1,0 -0.5,0 -1,0 -0.5,0 -1,0 l -0.5,0 0,-0.5 q 0,-0.5 0,-1 0,-0.5 0,-1 0,-0.5 0,-1 0,-0.5 0,-1 0,-0.5 0,-1 0,-0.5 0,-1 0,-0.5 0.125,-0.875 0.125,-0.375 0.5,-0.5 Q 33,48 33.5,48 q 0.5,0 1,0 0.5,0 1,0 0.5,0 1,0 0.5,0 1,0 0.5,0 1,0 0.5,0 0.875,-0.125 0.375,-0.125 0.5,-0.5 Q 40,47 40,46.5 q 0,-0.5 0,-1 0,-0.5 0,-1 0,-0.5 0,-1 0,-0.5 0,-1 0,-0.5 0,-1 0,-0.5 0.125,-0.875 M 32,55.625 32,56 32,56.125 32,56.25 32,56 q 0,-0.25 0,-0.5 l 0,-0.25 0,0.375"
       id="path20447"
       inkscape:connector-curvature="0" />
    <path
       style="fill:#e77e1f;fill-opacity:1"
       d="m 48,40.5 0,-0.5 0.5,0 q 0.5,0 1,0 0.5,0 1,0 0.5,0 1,0 0.5,0 1,0 0.5,0 1,0 0.5,0 1,0 0.5,0 1,0 0.5,0 1,0 0.5,0 1,0 0.5,0 1,0 0.5,0 1,0 0.5,0 1,0 0.5,0 1,0 0.5,0 1,0 0.5,0 0.875,0.125 0.375,0.125 0.5,0.5 Q 64,41 64,41.5 q 0,0.5 0,1 0,0.5 0,1 0,0.5 0,1 0,0.5 0,1 0,0.5 0,1 0,0.5 0,1 0,0.5 0,1 0,0.5 0,1 0,0.5 0,1 0,0.5 0,1 0,0.5 0,1 0,0.5 0,1 0,0.5 0,1 0,0.5 0,1 l 0,0.5 -0.5,0 q -0.5,0 -1,0 -0.5,0 -1,0 -0.5,0 -1,0 -0.5,0 -1,0 -0.5,0 -1,0 -0.5,0 -1,0 -0.5,0 -1.0625,-0.0625 L 55.875,55.875 55.8125,55.9375 55.75,56 55.875,55.875 Q 56,55.75 56,55.5 l 0,-0.25 0,0.375 0,0.375 0,-0.5 q 0,-0.5 0,-1 0,-0.5 0,-1 0,-0.5 0,-1 0,-0.5 0,-1 0,-0.5 0,-1 0,-0.5 0,-1 0,-0.5 -0.125,-0.875 -0.125,-0.375 -0.5,-0.5 Q 55,48 54.5,48 q -0.5,0 -1,0 -0.5,0 -1,0 -0.5,0 -1,0 -0.5,0 -1,0 -0.5,0 -1,0 -0.5,0 -1,0 l -0.5,0 0.375,0 0.375,0 -0.25,0 q -0.25,0 -0.375,0.125 L 48,48.25 48.0625,48.1875 48.125,48.125 48.0625,47.5625 Q 48,47 48,46.5 q 0,-0.5 0,-1 0,-0.5 0,-1 0,-0.5 0,-1 0,-0.5 0,-1 0,-0.5 0,-1 0,-0.5 0,-1 M 64,56.125 64,56 l 0,-0.375 0,-0.375 0,0.25 q 0,0.25 0,0.5 l 0,0.25 0,-0.125"
       id="path20449"
       inkscape:connector-curvature="0" />
    <path
       style="fill:#000000;fill-opacity:0"
       d="m 48,48.5 q 0,-0.5 0.5,-0.5 0.5,0 1,0 0.5,0 1,0 0.5,0 1,0 0.5,0 1,0 0.5,0 1,0 0.5,0 1,0 0.5,0 0.875,0.125 0.375,0.125 0.5,0.5 Q 56,49 56,49.5 q 0,0.5 0,1 0,0.5 0,1 0,0.5 0,1 0,0.5 0,1 0,0.5 0,1 0,0.5 0,1 0,0.5 -0.5,0.5 -0.5,0 -1,0 -0.5,0 -1,0 -0.5,0 -1,0 -0.5,0 -1,0 -0.5,0 -1,0 -0.5,0 -1,0 -0.5,0 -1,0 l -0.5,0 0,-0.5 q 0,-0.5 0,-1 0,-0.5 0,-1 0,-0.5 0,-1 0,-0.5 0,-1 0,-0.5 0,-1 0,-0.5 0,-1 0,-0.5 0,-1"
       id="path20451"
       inkscape:connector-curvature="0" />
    <path
       style="fill:#e77e1f;fill-opacity:1"
       d="m 32,56.5 0,-0.5 0.5,0 q 0.5,0 1,0 0.5,0 1,0 0.5,0 1,0 0.5,0 1,0 0.5,0 1,0 0.5,0 1,0 0.5,0 1.0625,0.0625 L 40.125,56.125 40.1875,56.0625 40.25,56 40.125,56.125 Q 40,56.25 40,56.5 l 0,0.25 0,-0.375 0,-0.375 0,0.5 q 0,0.5 0,1 0,0.5 0,1 0,0.5 0,1 0,0.5 0,1 0,0.5 0,1 0,0.5 0,1 0,0.5 0.125,0.875 0.125,0.375 0.5,0.5 Q 41,64 41.5,64 q 0.5,0 1,0 0.5,0 1,0 0.5,0 1,0 0.5,0 1,0 0.5,0 1,0 0.5,0 1,0 l 0.5,0 -0.375,0 -0.375,0 0.25,0 q 0.25,0 0.375,-0.125 L 48,63.75 47.9375,63.8125 47.875,63.875 47.9375,64.4375 Q 48,65 48,65.5 q 0,0.5 0,1 0,0.5 0,1 0,0.5 0,1 0,0.5 0,1 0,0.5 0,1 0,0.5 0,1 l 0,0.5 -0.5,0 -0.5,0 -0.5,0 -0.5,0 -0.5,0 -0.5,0 -0.5,0 -0.5,0 -0.5,0 -0.5,0 -0.5,0 -0.5,0 -0.5,0 -0.5,0 -0.5,0 -0.5,0 -0.5,0 -0.5,0 -0.5,0 -0.5,0 -0.5,0 -0.5,0 -0.5,0 -0.5,0 -0.5,0 -0.5,0 -0.5,0 -0.5,0 -0.5,0 -0.5,0 -0.5,0 -0.5,0 0,-0.5 q 0,-0.5 0,-1 0,-0.5 0,-1 0,-0.5 0,-1 0,-0.5 0,-1 0,-0.5 0,-1 0,-0.5 0,-1 0,-0.5 0,-1 0,-0.5 0,-1 0,-0.5 0,-1 0,-0.5 0,-1 0,-0.5 0,-1 0,-0.5 0,-1 0,-0.5 0,-1 0,-0.5 0,-1 0,-0.5 0,-1 m 0,-0.625 0,0.125 0,0.375 0,0.375 0,-0.25 q 0,-0.25 0,-0.5 l 0,-0.25 0,0.125"
       id="path20453"
       inkscape:connector-curvature="0" />
    <path
       style="fill:#000000;fill-opacity:0"
       d="m 40,56.5 q 0,-0.5 0.5,-0.5 0.5,0 1,0 0.5,0 1,0 0.5,0 1,0 0.5,0 1,0 0.5,0 1,0 0.5,0 1,0 0.5,0 1,0 l 0.5,0 0,0.5 q 0,0.5 0,1 0,0.5 0,1 0,0.5 0,1 0,0.5 0,1 0,0.5 0,1 0,0.5 0,1 0,0.5 0,1 0,0.5 -0.5,0.5 -0.5,0 -1,0 -0.5,0 -1,0 -0.5,0 -1,0 -0.5,0 -1,0 -0.5,0 -1,0 -0.5,0 -1,0 -0.5,0 -0.875,-0.125 -0.375,-0.125 -0.5,-0.5 Q 40,63 40,62.5 q 0,-0.5 0,-1 0,-0.5 0,-1 0,-0.5 0,-1 0,-0.5 0,-1 0,-0.5 0,-1 0,-0.5 0,-1"
       id="path20455"
       inkscape:connector-curvature="0" />
    <path
       style="fill:#c4601f;fill-opacity:1"
       d="m 48,56.5 0,-0.5 0.5,0 q 0.5,0 1,0 0.5,0 1,0 0.5,0 1,0 0.5,0 1,0 0.5,0 1,0 0.5,0 1,0 0.5,0 1,0 l 0.5,0 -0.375,0 -0.375,0 0.25,0 q 0.25,0 0.375,-0.125 L 56,55.75 55.9375,55.8125 55.875,55.875 56.4375,55.9375 Q 57,56 57.5,56 q 0.5,0 1,0 0.5,0 1,0 0.5,0 1,0 0.5,0 1,0 0.5,0 1,0 0.5,0 1,0 l 0.5,0 0,0.5 q 0,0.5 0,1 0,0.5 0,1 0,0.5 0,1 0,0.5 0,1 0,0.5 0,1 0,0.5 0,1 0,0.5 -0.125,0.875 -0.125,0.375 -0.5,0.5 Q 63,64 62.5,64 q -0.5,0 -1,0 -0.5,0 -1,0 -0.5,0 -1,0 -0.5,0 -1,0 -0.5,0 -1,0 -0.5,0 -0.875,0.125 -0.375,0.125 -0.5,0.5 Q 56,65 56,65.5 q 0,0.5 0,1 0,0.5 0,1 0,0.5 0,1 0,0.5 0,1 0,0.5 0,1 0,0.5 0,1 l 0,0.5 -0.5,0 -0.5,0 -0.5,0 -0.5,0 -0.5,0 -0.5,0 -0.5,0 -0.5,0 -0.5,0 -0.5,0 -0.5,0 -0.5,0 -0.5,0 -0.5,0 -0.5,0 -0.5,0 0,-0.5 q 0,-0.5 0,-1 0,-0.5 0,-1 0,-0.5 0,-1 0,-0.5 0,-1 0,-0.5 0,-1 0,-0.5 0,-1 0,-0.5 -0.0625,-1.0625 L 47.875,63.875 47.8125,63.9375 47.75,64 47.875,63.875 Q 48,63.75 48,63.5 l 0,-0.25 0,0.375 0,0.375 0,-0.5 q 0,-0.5 0,-1 0,-0.5 0,-1 0,-0.5 0,-1 0,-0.5 0,-1 0,-0.5 0,-1 0,-0.5 0,-1 0,-0.5 0,-1 M 64,56.375 64,56 64,55.875 64,55.75 64,56 q 0,0.25 0,0.5 l 0,0.25 0,-0.375"
       id="path20457"
       inkscape:connector-curvature="0" />
  </g>
</svg>
