<?xml version="1.0" encoding="UTF-8" standalone="no"?>
<svg
   xmlns:dc="http://purl.org/dc/elements/1.1/"
   xmlns:cc="http://creativecommons.org/ns#"
   xmlns:rdf="http://www.w3.org/1999/02/22-rdf-syntax-ns#"
   xmlns:svg="http://www.w3.org/2000/svg"
   xmlns="http://www.w3.org/2000/svg"
   xmlns:sodipodi="http://sodipodi.sourceforge.net/DTD/sodipodi-0.dtd"
   xmlns:inkscape="http://www.inkscape.org/namespaces/inkscape"
   viewBox="0 0 42 41"
   height="41"
   width="42"
   version="1.1"
   id="svg10340"
   inkscape:version="0.91 r13725"
   sodipodi:docname="bird-small.svg">
  <sodipodi:namedview
     pagecolor="#ffffff"
     bordercolor="#666666"
     borderopacity="1"
     objecttolerance="10"
     gridtolerance="10"
     guidetolerance="10"
     inkscape:pageopacity="0"
     inkscape:pageshadow="2"
     inkscape:window-width="1600"
     inkscape:window-height="878"
     id="namedview4281"
     showgrid="false"
     fit-margin-top="0"
     fit-margin-left="0"
     fit-margin-right="0"
     fit-margin-bottom="0"
     inkscape:zoom="10.376812"
     inkscape:cx="35"
     inkscape:cy="10.332103"
     inkscape:window-x="0"
     inkscape:window-y="22"
     inkscape:window-maximized="0"
     inkscape:current-layer="svg10340" />
  <metadata
     id="metadata10346">
    <rdf:RDF>
      <cc:Work
         rdf:about="">
        <dc:format>image/svg+xml</dc:format>
        <dc:type
           rdf:resource="http://purl.org/dc/dcmitype/StillImage" />
        <dc:title></dc:title>
      </cc:Work>
    </rdf:RDF>
  </metadata>
  <defs
     id="defs10344" />
  <g
     id="g10890"
     transform="matrix(0.5938747,0,0,0.5938747,0.19273744,0.02264404)">
    <path
       id="path10892"
       d="M 0,0.5 0,0 0.5,0 1,0 1.5,0 2,0 2.5,0 3,0 3.5,0 4,0 4.5,0 5,0 5.5,0 6,0 6.5,0 7,0 7.5,0 8,0 8.5,0 9,0 9.5,0 10,0 10.5,0 11,0 11.5,0 12,0 12.5,0 13,0 13.5,0 14,0 14.5,0 15,0 15.5,0 16,0 16.5,0 17,0 17.5,0 18,0 18.5,0 19,0 19.5,0 20,0 20,0.5 q 0,0.5 0,1 0,0.5 0,1 0,0.5 0,1 0,0.5 0,1 0,0.5 0,1 0,0.5 0,1 0,0.5 0,1 0,0.5 0,1 0,0.5 0,1 0,0.5 0,1 0,0.5 0,1 0,0.5 0,1 0,0.5 0,1 0,0.5 0,1 0,0.5 0,1 0,0.5 0,1 0,0.5 0,1 0,0.5 0,1 0,0.5 0,1 0,0.5 0,1 0,0.5 0,1 0,0.5 0,1 0,0.5 0,1 0,0.5 0,1 0,0.5 0,1 0,0.5 0,1 0,0.5 0,1 0,0.5 0,1 0,0.5 0,1 0,0.5 0,1 0,0.5 0,1 0,0.5 0,1 0,0.5 0,1 0,0.5 0,1 0,0.5 0,1 0,0.5 0,1 0,0.5 0,1 0,0.5 0,1 l 0,0.5 -0.5,0 -0.5,0 -0.5,0 -0.5,0 -0.5,0 -0.5,0 -0.5,0 q -0.5,0 -1,0 l -0.5,0 -0.5,0 -0.5,0 -0.5,0 -0.5,0 -0.5,0 -0.5,0 -0.5,0 q -0.5,0 -1,0 -0.5,0 -1,0 -0.5,0 -1,0 -0.5,0 -1,0 -0.5,0 -1,0 -0.5,0 -1,0 -0.5,0 -1,0 -0.5,0 -1,0 -0.5,0 -1,0 -0.5,0 -1,0 -0.5,0 -1,0 L 0,39 0,38.5 0,38 0,37.5 0,37 0,36.5 0,36 0,35.5 0,35 0,34.5 0,34 0,33.5 0,33 0,32.5 0,32 0,31.5 0,31 0,30.5 0,30 0,29.5 0,29 0,28.5 0,28 0,27.5 0,27 0,26.5 0,26 0,25.5 0,25 0,24.5 0,24 0,23.5 0,23 0,22.5 0,22 0,21.5 0,21 0,20.5 0,20 0,19.5 0,19 0,18.5 0,18 0,17.5 0,17 0,16.5 0,16 0,15.5 0,15 0,14.5 0,14 0,13.5 0,13 0,12.5 0,12 0,11.5 0,11 0,10.5 0,10 0,9.5 0,9 0,8.5 0,8 0,7.5 0,7 0,6.5 0,6 0,5.5 0,5 0,4.5 0,4 0,3.5 0,3 0,2.5 0,2 0,1.5 0,1 0,0.5 M 20,39.125 20,39 l 0,-0.375 0,-0.375 0,0.25 q 0,0.25 0,0.5 l 0,0.25 0,-0.125"
       style="fill:#000000;fill-opacity:0"
       inkscape:connector-curvature="0" />
    <path
       id="path10894"
       d="M 20,0.5 20,0 20.5,0 21,0 21.5,0 22,0 22.5,0 23,0 23.5,0 24,0 24.5,0 25,0 25.5,0 26,0 26.5,0 27,0 27.5,0 28,0 28.5,0 29,0 29.5,0 30,0 30,0.5 q 0,0.5 0,1 0,0.5 0,1 0,0.5 0,1 0,0.5 0,1 0,0.5 0,1 0,0.5 0,1 0,0.5 0,1 0,0.5 0.125,0.875 0.125,0.375 0.5,0.5 Q 31,9 31.5,9 q 0.5,0 1,0 0.5,0 1,0 0.5,0 1,0 0.5,0 1,0 0.5,0 1,0 0.5,0 1,0 0.5,0 1,0 0.5,0 0.875,0.125 0.375,0.125 0.5,0.5 Q 40,10 40,10.5 q 0,0.5 0,1 0,0.5 0,1 0,0.5 0,1 0,0.5 0,1 0,0.5 0,1 0,0.5 0,1 0,0.5 0,1 0,0.5 0.125,0.875 0.125,0.375 0.5,0.5 Q 41,19 41.5,19 q 0.5,0 1,0 0.5,0 1,0 0.5,0 1,0 0.5,0 1,0 0.5,0 1,0 0.5,0 1,0 0.5,0 1,0 0.5,0 0.875,0.125 0.375,0.125 0.5,0.5 Q 50,20 50,20.5 q 0,0.5 0,1 0,0.5 0,1 0,0.5 0,1 0,0.5 0,1 0,0.5 0,1 0,0.5 0,1 0,0.5 0,1 0,0.5 0,1 0,0.5 0,1 0,0.5 0,1 0,0.5 0,1 0,0.5 0,1 0,0.5 0,1 0,0.5 0,1 0,0.5 0,1 0,0.5 0,1 0,0.5 0,1 0,0.5 0,1 0,0.5 0,1 0,0.5 0,1 0,0.5 0,1 0,0.5 0,1 0,0.5 0,1 0,0.5 0,1 0,0.5 0,1 0,0.5 0,1 0,0.5 0,1 0,0.5 0.125,0.875 0.125,0.375 0.5,0.5 Q 51,49 51.5,49 q 0.5,0 1,0 0.5,0 1,0 0.5,0 1,0 0.5,0 1,0 0.5,0 1,0 0.5,0 1,0 0.5,0 1,0 0.5,0 1,0 0.5,0 1,0 0.5,0 1,0 0.5,0 1,0 0.5,0 1,0 0.5,0 1,0 0.5,0 1,0 0.5,0 1,0 0.5,0 1,0 0.5,0 1,0 0.5,0 1,0 l 0.5,0 0,0.5 0,0.5 0,0.5 0,0.5 0,0.5 0,0.5 0,0.5 0,0.5 0,0.5 0,0.5 0,0.5 0,0.5 0,0.5 0,0.5 0,0.5 0,0.5 0,0.5 0,0.5 0,0.5 0,0.5 -0.5,0 q -0.5,0 -1,0 -0.5,0 -1,0 -0.5,0 -1,0 -0.5,0 -1,0 -0.5,0 -1,0 -0.5,0 -1,0 -0.5,0 -1,0 -0.5,0 -1,0 -0.5,0 -1,0 -0.5,0 -1,0 -0.5,0 -1,0 -0.5,0 -1,0 -0.5,0 -1,0 -0.5,0 -1,0 -0.5,0 -1,0 -0.5,0 -1,0 -0.5,0 -1,0 -0.5,0 -1,0 -0.5,0 -1,0 l -0.5,0 -0.5,0 q -0.5,0 -1,0 -0.5,0 -1,0 -0.5,0 -1,0 -0.5,0 -1,0 -0.5,0 -1,0 -0.5,0 -1,0 -0.5,0 -1,0 -0.5,0 -1,0 -0.5,0 -1.0625,-0.0625 L 39.875,58.875 39.8125,58.9375 39.75,59 39.875,58.875 Q 40,58.75 40,58.5 l 0,-0.25 0,0.375 0,0.375 0,-0.5 0,-0.5 0,-0.5 q 0,-0.5 0,-1 l 0,-0.5 0,-0.5 0,-0.5 0,-0.5 q 0,-0.5 0,-1 0,-0.5 0,-1 0,-0.5 0,-1 0,-0.5 0,-1 0,-0.5 0,-1 0,-0.5 0,-1 0,-0.5 0,-1 0,-0.5 0,-1 0,-0.5 0,-1 0,-0.5 0,-1 0,-0.5 0,-1 0,-0.5 0,-1 0,-0.5 0,-1 0,-0.5 0,-1 0,-0.5 0,-1 0,-0.5 0,-1 0,-0.5 0,-1 0,-0.5 0,-1 0,-0.5 0,-1 0,-0.5 0,-1 0,-0.5 0,-1 0,-0.5 0,-1 0,-0.5 0,-1 0,-0.5 0,-1 0,-0.5 0,-1 0,-0.5 0,-1 0,-0.5 0,-1 0,-0.5 0,-1 0,-0.5 0,-1 0,-0.5 0,-1 0,-0.5 0,-1 l 0,-0.5 0,-0.5 0,-0.5 0,-0.5 q 0,-0.5 0,-1 0,-0.5 -0.125,-0.875 -0.125,-0.375 -0.5,-0.5 L 39,19 38.5,19 38,19 37.5,19 q -0.5,0 -1,0 -0.5,0 -1,0 -0.5,0 -1,0 -0.5,0 -1,0 -0.5,0 -1,0 -0.5,0 -1,0 l -0.5,0 -0.375,0.125 q -0.375,0.125 -0.5,0.5 L 30,20 l 0,0.5 q 0,0.5 0,1 0,0.5 0,1 0,0.5 0,1 0,0.5 0,1 0,0.5 0,1 0,0.5 0,1 0,0.5 0,1 0,0.5 0,1 0,0.5 0,1 0,0.5 0,1 0,0.5 0,1 0,0.5 0,1 0,0.5 0,1 0,0.5 0,1 0,0.5 0,1 0,0.5 0,1 0,0.5 0,1 0,0.5 0,1 0,0.5 0,1 0,0.5 0,1 0,0.5 0,1 0,0.5 0,1 0,0.5 0,1 0,0.5 0,1 0,0.5 0,1 0,0.5 0,1 0,0.5 0,1 0,0.5 -0.125,0.875 -0.125,0.375 -0.5,0.5 Q 29,49 28.5,49 q -0.5,0 -1,0 -0.5,0 -1,0 -0.5,0 -1,0 -0.5,0 -1,0 -0.5,0 -1,0 -0.5,0 -1,0 l -0.5,0 -0.5,0 -0.5,0 -0.375,0.125 q -0.375,0.125 -0.5,0.5 L 20,50 l 0,0.5 q 0,0.5 0,1 0,0.5 0,1 0,0.5 0,1 0,0.5 0,1 0,0.5 0,1 0,0.5 0,1 0,0.5 0,1 0,0.5 0,1 l 0,0.5 0,-0.375 0,-0.375 0,0.25 q 0,0.25 0.125,0.375 L 20.25,59 20.1875,58.9375 20.125,58.875 19.5625,58.9375 Q 19,59 18.5,59 q -0.5,0 -1,0 -0.5,0 -1,0 -0.5,0 -1,0 -0.5,0 -1,0 -0.5,0 -1,0 -0.5,0 -1,0 -0.5,0 -1,0 -0.5,0 -0.875,-0.125 -0.375,-0.125 -0.5,-0.5 Q 10,58 10,57.5 q 0,-0.5 0,-1 0,-0.5 0,-1 0,-0.5 0,-1 0,-0.5 0,-1 0,-0.5 0,-1 0,-0.5 0,-1 0,-0.5 0,-1 0,-0.5 0,-1 l 0,-0.5 0.5,0 q 0.5,0 1,0 l 0.5,0 0.5,0 0.5,0 0.5,0 q 0.5,0 1,0 0.5,0 1,0 0.5,0 1,0 0.5,0 1,0 0.5,0 1,0 l 0.5,0 0.375,-0.125 q 0.375,-0.125 0.5,-0.5 L 20,48 20,47.5 20,47 20,46.5 q 0,-0.5 0,-1 0,-0.5 0,-1 0,-0.5 0,-1 0,-0.5 0,-1 0,-0.5 0,-1 l 0,-0.5 0,-0.5 0,-0.5 0,-0.5 q 0,-0.5 0,-1 0,-0.5 0,-1 0,-0.5 0,-1 0,-0.5 0,-1 0,-0.5 0,-1 0,-0.5 0,-1 0,-0.5 0,-1 0,-0.5 0,-1 0,-0.5 0,-1 0,-0.5 0,-1 0,-0.5 0,-1 0,-0.5 0,-1 0,-0.5 0,-1 0,-0.5 0,-1 0,-0.5 0,-1 0,-0.5 0,-1 0,-0.5 0,-1 0,-0.5 0,-1 0,-0.5 0,-1 0,-0.5 0,-1 0,-0.5 0,-1 0,-0.5 0,-1 0,-0.5 0,-1 0,-0.5 0,-1 0,-0.5 0,-1 0,-0.5 0,-1 0,-0.5 0,-1 0,-0.5 0,-1 0,-0.5 0,-1 0,-0.5 0,-1 0,-0.5 0,-1 0,-0.5 0,-1 0,-0.5 0,-1 0,-0.5 0,-1 0,-0.5 0,-1 0,-0.5 0,-1 0,-0.5 0,-1 0,-0.5 0,-1 0,-0.5 0,-1"
       style="fill:#85471e;fill-opacity:1"
       inkscape:connector-curvature="0" />
    <path
       id="path10896"
       d="m 30,0.5 0,-0.5 0.5,0 0.5,0 0.5,0 0.5,0 0.5,0 0.5,0 0.5,0 0.5,0 0.5,0 0.5,0 0.5,0 0.5,0 0.5,0 0.5,0 0.5,0 0.5,0 0.5,0 0.5,0 0.5,0 0.5,0 0.5,0 0.5,0 0.5,0 0.5,0 0.5,0 0.5,0 0.5,0 0.5,0 0.5,0 0.5,0 0.5,0 0.5,0 0.5,0 0.5,0 0.5,0 0.5,0 0.5,0 0.5,0 0.5,0 0.5,0 0.5,0 0.5,0 0.5,0 0.5,0 0.5,0 0.5,0 0.5,0 0.5,0 0.5,0 0.5,0 0.5,0 0.5,0 0.5,0 0.5,0 0.5,0 0.5,0 0.5,0 0.5,0 0.5,0 0.5,0 0.5,0 0.5,0 0.5,0 0.5,0 0.5,0 0.5,0 0.5,0 0.5,0 0.5,0 0.5,0 0.5,0 0.5,0 0.5,0 0.5,0 0.5,0 0.5,0 0.5,0 0.5,0 0.5,0 0.5,0 0,0.5 0,0.5 0,0.5 0,0.5 0,0.5 0,0.5 0,0.5 0,0.5 0,0.5 0,0.5 0,0.5 0,0.5 0,0.5 0,0.5 0,0.5 0,0.5 0,0.5 0,0.5 0,0.5 0,0.5 0,0.5 0,0.5 0,0.5 0,0.5 0,0.5 0,0.5 0,0.5 0,0.5 0,0.5 0,0.5 0,0.5 0,0.5 0,0.5 0,0.5 0,0.5 0,0.5 0,0.5 0,0.5 0,0.5 0,0.5 0,0.5 0,0.5 0,0.5 0,0.5 0,0.5 0,0.5 0,0.5 0,0.5 0,0.5 0,0.5 0,0.5 0,0.5 0,0.5 0,0.5 0,0.5 0,0.5 0,0.5 0,0.5 0,0.5 0,0.5 0,0.5 0,0.5 0,0.5 0,0.5 0,0.5 0,0.5 0,0.5 0,0.5 0,0.5 0,0.5 0,0.5 0,0.5 0,0.5 0,0.5 0,0.5 0,0.5 0,0.5 0,0.5 0,0.5 0,0.5 0,0.5 0,0.5 0,0.5 0,0.5 0,0.5 0,0.5 0,0.5 0,0.5 0,0.5 0,0.5 0,0.5 0,0.5 0,0.5 0,0.5 0,0.5 0,0.5 0,0.5 0,0.5 -0.5,0 q -0.5,0 -1,0 -0.5,0 -1,0 -0.5,0 -1,0 -0.5,0 -1,0 -0.5,0 -1,0 -0.5,0 -1,0 -0.5,0 -1,0 -0.5,0 -1,0 -0.5,0 -1,0 -0.5,0 -1,0 -0.5,0 -1,0 -0.5,0 -1,0 -0.5,0 -1,0 -0.5,0 -1,0 -0.5,0 -1,0 -0.5,0 -1,0 -0.5,0 -1,0 -0.5,0 -1,0 -0.5,0 -0.875,-0.125 -0.375,-0.125 -0.5,-0.5 Q 50,48 50,47.5 q 0,-0.5 0,-1 0,-0.5 0,-1 0,-0.5 0,-1 0,-0.5 0,-1 0,-0.5 0,-1 0,-0.5 0,-1 0,-0.5 0,-1 0,-0.5 0,-1 0,-0.5 0,-1 0,-0.5 0,-1 0,-0.5 0,-1 0,-0.5 0,-1 0,-0.5 0,-1 0,-0.5 0,-1 0,-0.5 0,-1 0,-0.5 0,-1 0,-0.5 0,-1 0,-0.5 0,-1 0,-0.5 0,-1 0,-0.5 0,-1 0,-0.5 0,-1 0,-0.5 0,-1 0,-0.5 0,-1 0,-0.5 0,-1 0,-0.5 0,-1 0,-0.5 0,-1 0,-0.5 0,-1 0,-0.5 -0.125,-0.875 -0.125,-0.375 -0.5,-0.5 Q 49,19 48.5,19 q -0.5,0 -1,0 -0.5,0 -1,0 -0.5,0 -1,0 -0.5,0 -1,0 -0.5,0 -1,0 -0.5,0 -1,0 -0.5,0 -1,0 -0.5,0 -0.875,-0.125 -0.375,-0.125 -0.5,-0.5 Q 40,18 40,17.5 q 0,-0.5 0,-1 0,-0.5 0,-1 0,-0.5 0,-1 0,-0.5 0,-1 0,-0.5 0,-1 0,-0.5 0,-1 0,-0.5 0,-1 Q 40,10 39.875,9.625 39.75,9.25 39.375,9.125 39,9 38.5,9 38,9 37.5,9 37,9 36.5,9 36,9 35.5,9 35,9 34.5,9 34,9 33.5,9 33,9 32.5,9 32,9 31.5,9 31,9 30.625,8.875 30.25,8.75 30.125,8.375 30,8 30,7.5 30,7 30,6.5 30,6 30,5.5 30,5 30,4.5 30,4 30,3.5 30,3 30,2.5 30,2 30,1.5 30,1 30,0.5"
       style="fill:#000000;fill-opacity:0"
       inkscape:connector-curvature="0" />
    <path
       id="path10898"
       d="m 30.125,19.625 q 0.125,-0.375 0.5,-0.5 L 31,19 31,19.5 Q 31,20 30.5,20 l -0.5,0 0.125,-0.375"
       style="fill:#d7b6b0;fill-opacity:1"
       inkscape:connector-curvature="0" />
    <path
       id="path10900"
       d="m 31,19.5 0,-0.5 0.5,0 q 0.5,0 1,0 0.5,0 1,0 0.5,0 1,0 0.5,0 1,0 0.5,0 1,0 0.5,0 1,0 l 0.5,0 0,0.5 Q 38,20 38.5,20 39,20 39,19.5 l 0,-0.5 0.375,0.125 q 0.375,0.125 0.5,0.5 Q 40,20 40,20.5 q 0,0.5 0,1 l 0,0.5 -0.5,0 Q 39,22 39,22.5 39,23 39.5,23 l 0.5,0 0,0.5 q 0,0.5 0,1 0,0.5 0,1 0,0.5 0,1 0,0.5 0,1 0,0.5 0,1 0,0.5 0,1 0,0.5 0,1 0,0.5 0,1 0,0.5 0,1 0,0.5 0,1 0,0.5 0,1 0,0.5 0,1 0,0.5 0,1 0,0.5 0,1 0,0.5 0,1 0,0.5 0,1 0,0.5 0,1 0,0.5 0,1 0,0.5 0,1 0,0.5 0,1 0,0.5 0,1 0,0.5 0,1 0,0.5 0,1 0,0.5 0,1 0,0.5 0,1 0,0.5 0,1 0,0.5 0,1 0,0.5 0,1 0,0.5 0,1 0,0.5 0,1 0,0.5 0,1 l 0,0.5 -0.5,0 Q 39,55 39,55.5 39,56 39.5,56 l 0.5,0 0,0.5 q 0,0.5 0,1 l 0,0.5 -0.5,0 Q 39,58 39,58.5 l 0,0.5 -0.5,0 q -0.5,0 -1,0 -0.5,0 -1,0 -0.5,0 -1,0 -0.5,0 -1,0 -0.5,0 -1,0 -0.5,0 -1,0 -0.5,0 -1,0 -0.5,0 -1,0 -0.5,0 -1,0 -0.5,0 -1,0 -0.5,0 -1,0 -0.5,0 -1,0 -0.5,0 -1,0 -0.5,0 -1,0 -0.5,0 -1,0 -0.5,0 -1,0 -0.5,0 -1,0 -0.5,0 -1,0 -0.5,0 -0.5,-0.5 0,-0.5 0,-1 0,-0.5 0,-1 0,-0.5 0,-1 0,-0.5 0,-1 0,-0.5 0,-1 0,-0.5 0,-1 0,-0.5 0,-1 0,-0.5 0,-1 l 0,-0.5 0.5,0 0.5,0 0.5,0 Q 22,50 22,49.5 l 0,-0.5 0.5,0 q 0.5,0 1,0 0.5,0 1,0 0.5,0 1,0 0.5,0 1,0 0.5,0 1,0 0.5,0 1,0 0.5,0 0.875,-0.125 0.375,-0.125 0.5,-0.5 Q 30,48 30,47.5 q 0,-0.5 0,-1 0,-0.5 0,-1 0,-0.5 0,-1 0,-0.5 0,-1 0,-0.5 0,-1 0,-0.5 0,-1 0,-0.5 0,-1 0,-0.5 0,-1 0,-0.5 0,-1 0,-0.5 0,-1 0,-0.5 0,-1 0,-0.5 0,-1 0,-0.5 0,-1 0,-0.5 0,-1 0,-0.5 0,-1 0,-0.5 0,-1 0,-0.5 0,-1 0,-0.5 0,-1 0,-0.5 0,-1 0,-0.5 0,-1 0,-0.5 0,-1 0,-0.5 0,-1 0,-0.5 0,-1 0,-0.5 0,-1 0,-0.5 0,-1 0,-0.5 0,-1 0,-0.5 0,-1 l 0,-0.5 0.5,0 Q 31,20 31,19.5"
       style="fill:#d1b0a9;fill-opacity:1"
       inkscape:connector-curvature="0" />
    <path
       id="path10902"
       d="m 38,19.5 0,-0.5 0.5,0 0.5,0 0,0.5 Q 39,20 38.5,20 38,20 38,19.5"
       style="fill:#d1b1a7;fill-opacity:1"
       inkscape:connector-curvature="0" />
    <path
       id="path10904"
       d="M 39,22.5 Q 39,22 39.5,22 l 0.5,0 0,0.5 0,0.5 -0.5,0 Q 39,23 39,22.5"
       style="fill:#cfb0aa;fill-opacity:1"
       inkscape:connector-curvature="0" />
    <path
       id="path10906"
       d="M 0,39.5 0,39 0.5,39 q 0.5,0 1,0 0.5,0 1,0 0.5,0 1,0 0.5,0 1,0 0.5,0 1,0 0.5,0 1,0 0.5,0 1,0 0.5,0 1,0 0.5,0 1,0 l 0.5,0 0,0.5 0,0.5 0,0.5 0,0.5 0,0.5 q 0,0.5 0,1 0,0.5 0,1 0,0.5 0,1 0,0.5 0,1 0,0.5 0,1 l 0,0.5 0,0.5 0,0.5 0,0.5 0,0.5 -0.5,0 Q 9,49 8.5,49 8,49 7.5,49 7,49 6.5,49 6,49 5.5,49 5,49 4.5,49 4,49 3.5,49 3,49 2.5,49 2,49 1.5,49 1,49 0.5,49 L 0,49 0,48.5 0,48 0,47.5 0,47 0,46.5 0,46 0,45.5 0,45 0,44.5 0,44 0,43.5 0,43 0,42.5 0,42 0,41.5 0,41 0,40.5 0,40 0,39.5 M 10.125,39 10,39 9.625,39 9.25,39 9.5,39 q 0.25,0 0.5,0 l 0.25,0 -0.125,0"
       style="fill:#85471e;fill-opacity:1"
       inkscape:connector-curvature="0" />
    <path
       id="path10908"
       d="m 10,39.5 0,-0.5 0.5,0 q 0.5,0 1,0 l 0.5,0 0.125,0.375 0.125,0.375 -0.09375,-0.28125 -0.09375,-0.28125 0.0625,0.1875 q 0.0625,0.1875 0.15625,0.28125 L 12.375,39.75 12.328125,39.703125 12.28125,39.65625 11.984375,39.984375 11.6875,40.3125 11.75,40.375 l 0.0625,0.0625 -0.125,-0.125 Q 11.5625,40.1875 11.375,40.125 L 11.1875,40.0625 11.46875,40.15625 11.75,40.25 11.375,40.125 11,40 10.5,40 10,40 10,39.5 M 10.375,39 10,39 9.875,39 9.75,39 10,39 q 0.25,0 0.5,0 l 0.25,0 -0.375,0"
       style="fill:#120000;fill-opacity:1"
       inkscape:connector-curvature="0" />
    <path
       id="path10910"
       d="M 12.125,39.375 12,39 l 0.5,0 0.5,0 -0.125,0.375 Q 12.75,39.75 12.5,39.75 q -0.25,0 -0.375,-0.375"
       style="fill:#1e0000;fill-opacity:1"
       inkscape:connector-curvature="0" />
    <path
       id="path10912"
       d="M 12.875,39.375 13,39 l 0.5,0 0.5,0 0,0.5 0,0.5 -0.375,0.125 -0.375,0.125 0.28125,-0.09375 0.28125,-0.09375 -0.1875,0.0625 q -0.1875,0.0625 -0.3125,0.1875 l -0.125,0.125 L 13.25,40.375 13.3125,40.3125 13.015625,39.984375 12.71875,39.65625 12.671875,39.703125 12.625,39.75 12.71875,39.65625 Q 12.8125,39.5625 12.875,39.375 L 12.9375,39.1875 12.84375,39.46875 12.75,39.75 12.875,39.375"
       style="fill:#180300;fill-opacity:1"
       inkscape:connector-curvature="0" />
    <path
       id="path10914"
       d="m 14,39.5 0,-0.5 0.5,0 0.5,0 0.125,0.375 0.125,0.375 -0.09375,-0.28125 -0.09375,-0.28125 0.0625,0.1875 q 0.0625,0.1875 0.15625,0.28125 L 15.375,39.75 15.328125,39.703125 15.28125,39.65625 14.984375,39.984375 14.6875,40.3125 14.75,40.375 l 0.0625,0.0625 -0.125,-0.125 Q 14.5625,40.1875 14.375,40.125 L 14.1875,40.0625 14.46875,40.15625 14.75,40.25 14.375,40.125 14,40 14,39.5"
       style="fill:#190200;fill-opacity:1"
       inkscape:connector-curvature="0" />
    <path
       id="path10916"
       d="M 15.125,39.375 15,39 l 0.5,0 0.5,0 -0.125,0.375 Q 15.75,39.75 15.5,39.75 q -0.25,0 -0.375,-0.375 m 1,-0.375 -0.125,0 -0.375,0 -0.375,0 0.25,0 q 0.25,0 0.5,0 l 0.25,0 -0.125,0"
       style="fill:#230000;fill-opacity:1"
       inkscape:connector-curvature="0" />
    <path
       id="path10918"
       d="M 15.875,39.375 16,39 l 0.5,0 0.5,0 0.125,0.375 0.125,0.375 -0.09375,-0.28125 -0.09375,-0.28125 0.0625,0.1875 q 0.0625,0.1875 0.15625,0.34375 L 17.375,39.875 17.328125,39.796875 17.28125,39.71875 17,40.03125 l -0.28125,0.3125 0.04687,0.04687 0.04687,0.04687 -0.09375,-0.09375 Q 16.625,40.25 16.5,40.25 l -0.125,0 0.1875,0 0.1875,0 -0.25,0 -0.25,0 0.1875,0 0.1875,0 -0.125,0 q -0.125,0 -0.21875,0.09375 L 16.1875,40.4375 16.23437,40.39063 16.28124,40.34376 16,40 15.71875,39.65625 15.671875,39.703125 15.625,39.75 15.71875,39.65625 Q 15.8125,39.5625 15.875,39.375 L 15.9375,39.1875 15.84375,39.46875 15.75,39.75 15.875,39.375 M 16.375,39 16,39 15.875,39 15.75,39 16,39 q 0.25,0 0.5,0 l 0.25,0 -0.375,0"
       style="fill:#160404;fill-opacity:1"
       inkscape:connector-curvature="0" />
    <path
       id="path10920"
       d="M 17.125,39.375 17,39 l 0.5,0 0.5,0 0.125,0.375 0.125,0.375 -0.09375,-0.28125 -0.09375,-0.28125 0.0625,0.1875 q 0.0625,0.1875 0.1875,0.3125 l 0.125,0.125 -0.0625,-0.0625 -0.0625,-0.0625 -0.296875,0.296875 -0.296875,0.296875 0.04687,0.07813 0.04687,0.07813 -0.09375,-0.15625 Q 17.625,40.125 17.5,40 L 17.375,39.875 17.5625,40.0625 17.75,40.25 17.5,40 q -0.25,-0.25 -0.375,-0.625"
       style="fill:#1c0000;fill-opacity:1"
       inkscape:connector-curvature="0" />
    <path
       id="path10922"
       d="M 18.125,39.375 18,39 l 0.5,0 0.5,0 0,0.5 0,0.5 -0.375,-0.125 q -0.375,-0.125 -0.5,-0.5"
       style="fill:#1b0000;fill-opacity:1"
       inkscape:connector-curvature="0" />
    <path
       id="path10924"
       d="m 19,39.5 0,-0.5 0.5,0 0.5,0 0,0.5 0,0.5 -0.5,0 -0.5,0 0,-0.5 M 20,39.375 20,39 20,38.875 20,38.75 20,39 q 0,0.25 0,0.5 l 0,0.25 0,-0.375"
       style="fill:#150000;fill-opacity:1"
       inkscape:connector-curvature="0" />
    <path
       id="path10926"
       d="m 10,40.5 0,-0.5 0.5,0 0.5,0 0,0.5 0,0.5 -0.5,0 -0.5,0 0,-0.5"
       style="fill:#1a0202;fill-opacity:1"
       inkscape:connector-curvature="0" />
    <path
       id="path10928"
       d="m 11,40.5 0,-0.5 0.375,0.125 q 0.375,0.125 0.5,0.5 L 12,41 11.5,41 11,41 11,40.5"
       style="fill:#170700;fill-opacity:1"
       inkscape:connector-curvature="0" />
    <path
       id="path10930"
       d="M 11.875,40.625 11.75,40.25 11.84375,40.53125 11.9375,40.8125 11.875,40.625 q -0.0625,-0.1875 -0.1875,-0.3125 l -0.125,-0.125 0.0625,0.0625 0.0625,0.0625 0.296875,-0.328125 0.296875,-0.328125 -0.04687,-0.04687 -0.04687,-0.04687 0.09375,0.09375 Q 12.375,39.75 12.5,39.75 l 0.125,0 -0.1875,0 -0.1875,0 0.25,0 0.25,0 -0.1875,0 -0.1875,0 0.125,0 q 0.125,0 0.21875,-0.09375 l 0.09375,-0.09375 -0.04687,0.04687 -0.04687,0.04687 0.296875,0.328125 0.296875,0.328125 0.0625,-0.0625 0.0625,-0.0625 -0.125,0.125 q -0.125,0.125 -0.1875,0.3125 L 13.0625,40.8125 13.15625,40.53125 13.25,40.25 13.125,40.625 Q 13,41 12.5,41 L 12,41 11.875,40.625"
       style="fill:#0f0100;fill-opacity:1"
       inkscape:connector-curvature="0" />
    <path
       id="path10932"
       d="m 13.125,40.625 q 0.125,-0.375 0.5,-0.5 L 14,40 l 0,0.5 q 0,0.5 0.5,0.5 l 0.5,0 0.5,0 0.5,0 0,0.5 0,0.5 0,0.5 Q 16,43 16.5,43 17,43 17,42.5 L 17,42 17,41.5 17,41 16.875,40.625 16.75,40.25 16.84375,40.53125 16.9375,40.8125 16.875,40.625 Q 16.8125,40.4375 16.71875,40.34375 L 16.625,40.25 l 0.04687,0.04687 0.04687,0.04687 0.28125,-0.3125 0.28125,-0.3125 -0.04687,-0.07813 -0.04687,-0.07813 0.09375,0.15625 Q 17.375,39.875 17.5,40 L 17.625,40.125 17.4375,39.9375 17.25,39.75 17.5,40 q 0.25,0.25 0.375,0.625 Q 18,41 18.5,41 l 0.5,0 0.5,0 0.5,0 0,0.5 q 0,0.5 0,1 0,0.5 0,1 0,0.5 0,1 0,0.5 0,1 0,0.5 0,1 l 0,0.5 -0.5,0 Q 19,47 19,47.5 l 0,0.5 0,0.5 0,0.5 -0.5,0 q -0.5,0 -1,0 -0.5,0 -1,0 -0.5,0 -1,0 -0.5,0 -1,0 -0.5,0 -1,0 L 13,49 13,48.5 Q 13,48 12.5,48 12,48 12,48.5 l 0,0.5 -0.5,0 q -0.5,0 -1,0 l -0.5,0 0,-0.5 0,-0.5 0.5,0 Q 11,48 11,47.5 11,47 10.5,47 l -0.5,0 0,-0.5 q 0,-0.5 0,-1 0,-0.5 0,-1 0,-0.5 0,-1 0,-0.5 0,-1 0,-0.5 0,-1 l 0,-0.5 0.5,0 0.5,0 0.5,0 0.5,0 0.5,0 q 0.5,0 0.625,-0.375 M 16.5,47 Q 17,47 17,46.5 17,46 16.5,46 16,46 16,46.5 16,47 16.5,47 m 0,-2 Q 17,45 17,44.5 17,44 16.5,44 16,44 16,44.5 16,45 16.5,45"
       style="fill:#0d0000;fill-opacity:1"
       inkscape:connector-curvature="0" />
    <path
       id="path10934"
       d="m 14,40.5 0,-0.5 0.375,0.125 q 0.375,0.125 0.5,0.5 L 15,41 14.5,41 Q 14,41 14,40.5"
       style="fill:#110200;fill-opacity:1"
       inkscape:connector-curvature="0" />
    <path
       id="path10936"
       d="M 14.875,40.625 14.75,40.25 14.84375,40.53125 14.9375,40.8125 14.875,40.625 q -0.0625,-0.1875 -0.1875,-0.3125 l -0.125,-0.125 0.0625,0.0625 0.0625,0.0625 0.296875,-0.328125 0.296875,-0.328125 -0.04687,-0.04687 -0.04687,-0.04687 0.09375,0.09375 Q 15.375,39.75 15.5,39.75 l 0.125,0 -0.1875,0 -0.1875,0 0.25,0 0.25,0 -0.1875,0 -0.1875,0 0.125,0 q 0.125,0 0.21875,-0.09375 L 15.8125,39.5625 15.76563,39.60937 15.71876,39.65624 16,40 16.28125,40.34375 16.32812,40.29688 16.375,40.25 16.28125,40.34375 Q 16.1875,40.4375 16.125,40.625 L 16.0625,40.8125 16.15625,40.53125 16.25,40.25 16.125,40.625 16,41 15.5,41 15,41 14.875,40.625"
       style="fill:#190302;fill-opacity:1"
       inkscape:connector-curvature="0" />
    <path
       id="path10938"
       d="M 16.125,40.625 Q 16.25,40.25 16.5,40.25 q 0.25,0 0.375,0.375 L 17,41 16.5,41 16,41 16.125,40.625"
       style="fill:#110302;fill-opacity:1"
       inkscape:connector-curvature="0" />
    <path
       id="path10940"
       d="M 17.875,40.625 17.75,40.25 17.84375,40.53125 17.9375,40.8125 17.875,40.625 Q 17.8125,40.4375 17.71875,40.28125 L 17.625,40.125 l 0.04687,0.07813 0.04687,0.07813 0.296875,-0.296875 L 18.3125,39.6875 18.25,39.625 l -0.0625,-0.0625 0.125,0.125 q 0.125,0.125 0.3125,0.1875 L 18.8125,39.9375 18.53125,39.84375 18.25,39.75 18.625,39.875 19,40 l 0,0.5 0,0.5 -0.5,0 Q 18,41 17.875,40.625"
       style="fill:#140202;fill-opacity:1"
       inkscape:connector-curvature="0" />
    <path
       id="path10942"
       d="m 19,40.5 0,-0.5 0.5,0 0.5,0 0,0.5 0,0.5 -0.5,0 -0.5,0 0,-0.5"
       style="fill:#190601;fill-opacity:1"
       inkscape:connector-curvature="0" />
    <path
       id="path10944"
       d="m 16,41.5 0,-0.5 0.5,0 0.5,0 0,0.5 0,0.5 -0.5,0 -0.5,0 0,-0.5"
       style="fill:#150706;fill-opacity:1"
       inkscape:connector-curvature="0" />
    <path
       id="path10946"
       d="m 16,42.5 0,-0.5 0.5,0 0.5,0 0,0.5 Q 17,43 16.5,43 16,43 16,42.5"
       style="fill:#110303;fill-opacity:1"
       inkscape:connector-curvature="0" />
    <path
       id="path10948"
       d="M 16,44.5 Q 16,44 16.5,44 17,44 17,44.5 17,45 16.5,45 16,45 16,44.5"
       style="fill:#100303;fill-opacity:1"
       inkscape:connector-curvature="0" />
    <path
       id="path10950"
       d="M 16,46.5 Q 16,46 16.5,46 17,46 17,46.5 17,47 16.5,47 16,47 16,46.5"
       style="fill:#150706;fill-opacity:1"
       inkscape:connector-curvature="0" />
    <path
       id="path10952"
       d="m 10,47.5 0,-0.5 0.5,0 Q 11,47 11,47.5 11,48 10.5,48 l -0.5,0 0,-0.5"
       style="fill:#190400;fill-opacity:1"
       inkscape:connector-curvature="0" />
    <path
       id="path10954"
       d="M 19,47.5 Q 19,47 19.5,47 l 0.5,0 0,0.5 0,0.5 -0.5,0 -0.5,0 0,-0.5"
       style="fill:#170800;fill-opacity:1"
       inkscape:connector-curvature="0" />
    <path
       id="path10956"
       d="M 12,48.5 Q 12,48 12.5,48 13,48 13,48.5 l 0,0.5 -0.5,0 -0.5,0 0,-0.5"
       style="fill:#140200;fill-opacity:1"
       inkscape:connector-curvature="0" />
    <path
       id="path10958"
       d="m 19,48.5 0,-0.5 0.5,0 0.5,0 -0.125,0.375 q -0.125,0.375 -0.5,0.5 L 19,49 19,48.5"
       style="fill:#1a0400;fill-opacity:1"
       inkscape:connector-curvature="0" />
    <path
       id="path10960"
       d="M 0,49.5 0,49 0.5,49 q 0.5,0 1,0 0.5,0 1,0 0.5,0 1,0 0.5,0 1,0 0.5,0 1,0 0.5,0 1,0 0.5,0 1,0 0.5,0 1,0 0.5,0 1,0 l 0.5,0 0,0.5 q 0,0.5 0,1 0,0.5 0,1 0,0.5 0,1 0,0.5 0,1 0,0.5 0,1 0,0.5 0,1 0,0.5 0,1 0,0.5 0,1 0,0.5 0.125,0.875 L 10.25,58.75 10.15625,58.46875 10.0625,58.1875 10.125,58.375 q 0.0625,0.1875 0.1875,0.3125 l 0.125,0.125 L 10.375,58.75 10.3125,58.6875 10.03125,58.96875 Q 9.75,59.25 9.375,59.125 9,59 8.5,59 8,59 7.5,59 7,59 6.5,59 6,59 5.5,59 5,59 4.5,59 4,59 3.5,59 3,59 2.5,59 L 2,59 2,58.5 Q 2,58 1.625,57.875 1.25,57.75 1.125,57.375 1,57 0.5,57 L 0,57 0,56.5 0,56 0,55.5 0,55 0,54.5 0,54 0,53.5 0,53 0,52.5 0,52 0,51.5 0,51 0,50.5 0,50 0,49.5"
       style="fill:#0d0000;fill-opacity:1"
       inkscape:connector-curvature="0" />
    <path
       id="path10962"
       d="m 20.125,49.625 q 0.125,-0.375 0.5,-0.5 L 21,49 l 0,0.5 0,0.5 -0.5,0 -0.5,0 0.125,-0.375"
       style="fill:#d9b4a7;fill-opacity:1"
       inkscape:connector-curvature="0" />
    <path
       id="path10964"
       d="m 21,49.5 0,-0.5 0.5,0 0.5,0 0,0.5 Q 22,50 21.5,50 l -0.5,0 0,-0.5"
       style="fill:#d5b0a7;fill-opacity:1"
       inkscape:connector-curvature="0" />
    <path
       id="path10966"
       d="M 39,55.5 Q 39,55 39.5,55 l 0.5,0 0,0.5 0,0.5 -0.5,0 Q 39,56 39,55.5"
       style="fill:#d1b0a8;fill-opacity:1"
       inkscape:connector-curvature="0" />
    <path
       id="path10968"
       d="M 0,57.5 0,57 0.5,57 Q 1,57 1.125,57.375 L 1.25,57.75 1.15625,57.46875 1.0625,57.1875 1.125,57.375 q 0.0625,0.1875 0.1875,0.3125 l 0.125,0.125 L 1.375,57.75 1.3125,57.6875 1,58 0.6875,58.3125 0.75,58.375 0.8125,58.4375 0.6875,58.3125 Q 0.5625,58.1875 0.375,58.125 L 0.1875,58.0625 0.46875,58.15625 0.75,58.25 0.375,58.125 0,58 0,57.5"
       style="fill:#0a0000;fill-opacity:1"
       inkscape:connector-curvature="0" />
    <path
       id="path10970"
       d="M 0,58.5 0,58 0.375,58.125 q 0.375,0.125 0.5,0.5 L 1,59 0.5,59 0,59 0,58.5"
       style="fill:#060a0e;fill-opacity:1"
       inkscape:connector-curvature="0" />
    <path
       id="path10972"
       d="M 0.875,58.625 0.75,58.25 0.84375,58.53125 0.9375,58.8125 0.875,58.625 Q 0.8125,58.4375 0.6875,58.3125 L 0.5625,58.1875 0.625,58.25 0.6875,58.3125 1,58 1.3125,57.6875 1.25,57.625 1.1875,57.5625 l 0.125,0.125 q 0.125,0.125 0.3125,0.1875 L 1.8125,57.9375 1.53125,57.84375 1.25,57.75 1.625,57.875 Q 2,58 2,58.5 L 2,59 1.5,59 1,59 0.875,58.625"
       style="fill:#070000;fill-opacity:1"
       inkscape:connector-curvature="0" />
    <path
       id="path10974"
       d="M 39,58.5 Q 39,58 39.5,58 l 0.5,0 0,0.5 Q 40,59 39.5,59 l -0.5,0 0,-0.5"
       style="fill:#d2b0a7;fill-opacity:1"
       inkscape:connector-curvature="0" />
    <path
       id="path10976"
       d="M 0,59.5 0,59 0.5,59 1,59 1.5,59 2,59 2.5,59 q 0.5,0 1,0 0.5,0 1,0 0.5,0 1,0 0.5,0 1,0 0.5,0 1,0 0.5,0 1,0 0.5,0 0.875,0.125 0.375,0.125 0.65625,-0.15625 L 10.3125,58.6875 10.25,58.625 l -0.0625,-0.0625 0.125,0.125 q 0.125,0.125 0.3125,0.1875 L 10.8125,58.9375 10.53125,58.84375 10.25,58.75 10.625,58.875 Q 11,59 11.5,59 q 0.5,0 1,0 0.5,0 1,0 0.5,0 1,0 0.5,0 1,0 0.5,0 1,0 0.5,0 1,0 0.5,0 1,0 0.5,0 1.0625,-0.0625 L 20.125,58.875 20.0625,58.8125 20,58.75 20.125,58.875 Q 20.25,59 20.5,59 l 0.25,0 -0.375,0 -0.375,0 0.5,0 q 0.5,0 1,0 0.5,0 1,0 0.5,0 1,0 0.5,0 1,0 0.5,0 1,0 0.5,0 1,0 0.5,0 1,0 0.5,0 1,0 0.5,0 1,0 0.5,0 1,0 0.5,0 1,0 0.5,0 1,0 0.5,0 1,0 0.5,0 1,0 0.5,0 1,0 0.5,0 1,0 0.5,0 1,0 0.5,0 1,0 l 0.5,0 0.5,0 0.5,0 -0.375,0 -0.375,0 0.25,0 q 0.25,0 0.375,-0.125 L 40,58.75 39.9375,58.8125 39.875,58.875 39.9375,59.4375 Q 40,60 40,60.5 q 0,0.5 0,1 0,0.5 0,1 0,0.5 0,1 0,0.5 0,1 0,0.5 0,1 0,0.5 0,1 l 0,0.5 0,0.5 0,0.5 0,0.5 0,0.5 -0.5,0 L 39,69 38.5,69 38,69 37.5,69 37,69 36.5,69 36,69 35.5,69 35,69 34.5,69 34,69 33.5,69 33,69 32.5,69 32,69 31.5,69 31,69 30.5,69 30,69 29.5,69 29,69 28.5,69 28,69 27.5,69 27,69 26.5,69 26,69 25.5,69 25,69 24.5,69 24,69 23.5,69 23,69 22.5,69 22,69 21.5,69 21,69 20.5,69 20,69 19.5,69 19,69 18.5,69 18,69 17.5,69 17,69 16.5,69 16,69 15.5,69 15,69 14.5,69 14,69 13.5,69 13,69 12.5,69 12,69 11.5,69 11,69 10.5,69 10,69 9.5,69 9,69 8.5,69 8,69 7.5,69 7,69 6.5,69 6,69 5.5,69 5,69 4.5,69 4,69 3.5,69 3,69 2.5,69 2,69 1.5,69 1,69 0.5,69 0,69 0,68.5 0,68 0,67.5 0,67 0,66.5 0,66 0,65.5 0,65 0,64.5 0,64 0,63.5 0,63 0,62.5 0,62 0,61.5 0,61 0,60.5 0,60 0,59.5"
       style="fill:#000000;fill-opacity:0"
       inkscape:connector-curvature="0" />
    <path
       id="path10978"
       d="M 39.9375,59.4375 39.875,58.875 40.4375,58.9375 Q 41,59 41.5,59 q 0.5,0 1,0 0.5,0 1,0 0.5,0 1,0 0.5,0 1,0 0.5,0 1,0 0.5,0 1,0 0.5,0 1,0 0.5,0 1,0 l 0.5,0 0,0.5 q 0,0.5 0,1 0,0.5 0,1 0,0.5 0,1 0,0.5 0,1 0,0.5 0,1 0,0.5 0,1 0,0.5 0,1 0,0.5 0,1 l 0,0.5 -0.5,0 -0.5,0 -0.5,0 Q 48,68 48,68.5 l 0,0.5 -0.5,0 -0.5,0 -0.5,0 -0.5,0 -0.5,0 -0.5,0 -0.5,0 -0.5,0 -0.5,0 -0.5,0 -0.5,0 -0.5,0 0,-0.5 Q 42,68 41.625,67.875 41.25,67.75 41.125,67.375 41,67 40.5,67 l -0.5,0 0,-0.5 q 0,-0.5 0,-1 0,-0.5 0,-1 0,-0.5 0,-1 0,-0.5 0,-1 0,-0.5 0,-1 0,-0.5 0,-1 0,-0.5 -0.0625,-1.0625"
       style="fill:#0d0000;fill-opacity:1"
       inkscape:connector-curvature="0" />
    <path
       id="path10980"
       d="m 50,59.5 0,-0.5 0.5,0 q 0.5,0 1,0 0.5,0 1,0 0.5,0 1,0 0.5,0 1,0 0.5,0 1,0 0.5,0 1,0 0.5,0 1,0 0.5,0 1,0 0.5,0 1,0 0.5,0 1,0 0.5,0 1,0 0.5,0 1,0 0.5,0 1,0 0.5,0 1,0 0.5,0 1,0 0.5,0 1,0 0.5,0 1,0 0.5,0 1,0 0.5,0 1,0 l 0.5,0 0,0.5 0,0.5 0,0.5 0,0.5 0,0.5 0,0.5 0,0.5 0,0.5 0,0.5 0,0.5 0,0.5 0,0.5 0,0.5 0,0.5 0,0.5 0,0.5 0,0.5 0,0.5 0,0.5 0,0.5 -0.5,0 -0.5,0 -0.5,0 -0.5,0 -0.5,0 -0.5,0 -0.5,0 -0.5,0 -0.5,0 -0.5,0 -0.5,0 -0.5,0 -0.5,0 -0.5,0 -0.5,0 -0.5,0 -0.5,0 -0.5,0 -0.5,0 -0.5,0 -0.5,0 -0.5,0 -0.5,0 -0.5,0 -0.5,0 -0.5,0 -0.5,0 -0.5,0 -0.5,0 -0.5,0 -0.5,0 -0.5,0 -0.5,0 -0.5,0 -0.5,0 -0.5,0 -0.5,0 -0.5,0 -0.5,0 -0.5,0 0,-0.5 0,-0.5 0,-0.5 q 0,-0.5 0,-1 0,-0.5 0,-1 0,-0.5 0,-1 0,-0.5 0,-1 0,-0.5 0,-1 0,-0.5 0,-1 0,-0.5 0,-1 0,-0.5 0,-1"
       style="fill:#000000;fill-opacity:0"
       inkscape:connector-curvature="0" />
    <path
       id="path10982"
       d="m 40,67.5 0,-0.5 0.5,0 q 0.5,0 0.625,0.375 L 41.25,67.75 41.15625,67.46875 41.0625,67.1875 41.125,67.375 q 0.0625,0.1875 0.1875,0.3125 l 0.125,0.125 L 41.375,67.75 41.3125,67.6875 41,68 l -0.3125,0.3125 0.0625,0.0625 0.0625,0.0625 -0.125,-0.125 Q 40.5625,68.1875 40.375,68.125 L 40.1875,68.0625 40.46875,68.15625 40.75,68.25 40.375,68.125 40,68 40,67.5"
       style="fill:#0a0100;fill-opacity:1"
       inkscape:connector-curvature="0" />
    <path
       id="path10984"
       d="m 40,68.5 0,-0.5 0.375,0.125 q 0.375,0.125 0.5,0.5 L 41,69 40.5,69 40,69 40,68.5"
       style="fill:#000607;fill-opacity:1"
       inkscape:connector-curvature="0" />
    <path
       id="path10986"
       d="M 40.875,68.625 40.75,68.25 40.84375,68.53125 40.9375,68.8125 40.875,68.625 q -0.0625,-0.1875 -0.1875,-0.3125 l -0.125,-0.125 0.0625,0.0625 0.0625,0.0625 L 41,68 41.3125,67.6875 41.25,67.625 l -0.0625,-0.0625 0.125,0.125 q 0.125,0.125 0.3125,0.1875 L 41.8125,67.9375 41.53125,67.84375 41.25,67.75 41.625,67.875 Q 42,68 42,68.5 l 0,0.5 -0.5,0 -0.5,0 -0.125,-0.375"
       style="fill:#050000;fill-opacity:1"
       inkscape:connector-curvature="0" />
    <path
       id="path10988"
       d="M 48,68.5 Q 48,68 48.5,68 l 0.5,0 0,0.5 0,0.5 -0.5,0 -0.5,0 0,-0.5"
       style="fill:#0a0000;fill-opacity:1"
       inkscape:connector-curvature="0" />
    <path
       id="path10990"
       d="m 49,68.5 0,-0.5 0.5,0 0.5,0 0,0.5 0,0.5 -0.5,0 -0.5,0 0,-0.5"
       style="fill:#080508;fill-opacity:1"
       inkscape:connector-curvature="0" />
  </g>
</svg>
